

<svg width="128" height="128" viewBox="0 0 128 128" fill="none" xmlns="http://www.w3.org/2000/svg">
<path fill-rule="evenodd" clip-rule="evenodd" d="M84.1706 21.284C79.8501 21.039 75.5296 20.7765 71.2091 20.4965C69.7007 16.6988 68.155 12.9537 66.5162 9.22612C65.5292 8.19359 64.2815 7.80858 62.7916 8.08859C62.3261 8.4211 61.8791 8.78861 61.4694 9.22612C59.8492 12.9537 58.2849 16.7163 56.7765 20.4965C52.456 20.794 48.1355 21.0565 43.815 21.284C41.8038 22.1065 41.2078 23.489 42.0086 25.4491C45.3049 28.1792 48.657 30.8043 52.0835 33.3593C51.3386 36.9994 50.3703 40.6045 49.197 44.1921C49.048 44.9447 49.048 45.6972 49.197 46.4497C50.184 48.0073 51.5807 48.4973 53.4058 47.9198C56.9068 45.7322 60.4079 43.5796 63.9649 41.4971C67.3728 43.5096 70.7436 45.5747 74.0584 47.7098C74.8033 48.1473 75.6041 48.2873 76.4608 48.1648C78.0251 47.7798 78.8259 46.8347 78.8631 45.3297C77.8202 41.3396 76.8146 37.3494 75.8462 33.3768C79.2914 30.8218 82.6435 28.1967 85.9398 25.4666C86.7405 23.524 86.1446 22.124 84.1333 21.3015L84.1706 21.284ZM73.1273 30.2967C71.6375 31.1893 71.116 32.4143 71.563 34.0068C72.3451 36.8769 73.1831 39.747 74.0957 42.5821C74.0212 42.6521 73.9281 42.7396 73.8536 42.8096C71.1719 41.0596 68.4343 39.3795 65.6968 37.717C64.5794 37.2619 63.4621 37.2619 62.3447 37.717C59.5885 39.362 56.8696 41.0596 54.1879 42.8096C54.8025 39.9045 55.566 36.9644 56.4785 34.0068C56.9255 32.3968 56.404 31.1718 54.9142 30.2967C52.5119 28.4942 50.1095 26.6916 47.7072 24.8891C50.8358 24.7141 53.9458 24.5566 57.0744 24.4341C58.4525 24.5041 59.5327 24.0316 60.3148 22.964C61.5439 19.9714 62.6985 16.9788 63.7973 13.9338C64.0207 13.9338 64.1884 14.0388 64.2815 14.2838C65.4733 17.1539 66.6279 20.0589 67.7639 22.964C68.5647 24.0316 69.6262 24.5216 71.0043 24.4341C74.1329 24.5566 77.2429 24.7141 80.3715 24.8891C77.9692 26.6916 75.5669 28.4942 73.1645 30.2967H73.1273Z" fill="#44C5FF"/>
<path fill-rule="evenodd" clip-rule="evenodd" d="M38.3027 39.082C37.595 39.2395 36.8687 39.2395 36.1425 39.082C31.4681 36.5794 26.8683 33.9718 22.343 31.3118C21.9519 30.0517 22.3057 29.0717 23.4231 28.3717C24.4846 28.3017 25.4344 28.5817 26.3096 29.1592C30.3135 31.3293 34.3174 33.5343 38.3027 35.7044C39.5877 36.8244 39.5877 37.962 38.3027 39.082Z" fill="#44C5FF"/>
<path fill-rule="evenodd" clip-rule="evenodd" d="M105.773 30.2967C105.81 30.9268 105.55 31.4518 105.065 31.8718C100.633 34.2169 96.2195 36.6319 91.8618 39.082C89.5526 39.537 88.5283 38.6795 88.8635 36.4919C89.1429 36.2294 89.4222 35.9669 89.6829 35.7044C94.2269 33.2893 98.6964 30.8568 103.147 28.3542C104.749 28.1442 105.643 28.7742 105.773 30.2792V30.2967Z" fill="#44C5FF"/>
<path fill-rule="evenodd" clip-rule="evenodd" d="M34.8202 52.9599C34.5409 53.3099 34.1684 53.5899 33.7401 53.7474C28.3023 53.9049 22.8458 53.9049 17.4266 53.7474C16.0112 53.0824 15.6574 52.0674 16.3278 50.7023C16.6072 50.4573 16.8865 50.2123 17.1658 50.0373C22.7713 50.0023 28.3768 50.0373 33.9636 50.1423C35.1741 50.8248 35.4534 51.7524 34.8016 52.9599H34.8202Z" fill="#44C5FF"/>
<path fill-rule="evenodd" clip-rule="evenodd" d="M111.658 52.9599C111.36 53.3099 110.987 53.5899 110.559 53.7474C105.121 53.9049 99.6834 53.9049 94.2455 53.7474C92.4205 52.5749 92.3646 51.3324 94.022 50.0373C99.6089 50.0023 105.233 50.0373 110.82 50.1423C112.03 50.8248 112.31 51.7524 111.658 52.9599Z" fill="#44C5FF"/>
<path fill-rule="evenodd" clip-rule="evenodd" d="M98.1004 117.852C95.9216 104.096 87.8393 94.9611 73.8536 90.4285C79.2914 86.9109 82.1779 82.0107 82.4945 75.7631C81.2841 64.9128 74.8778 59.1376 63.2945 58.4026C55.5846 59.1201 50.1095 62.7952 46.8319 69.4454C44.0013 78.0906 46.4408 85.0908 54.1693 90.4285C47.5396 92.4061 41.9714 95.8537 37.4833 100.824C32.809 106.109 30.3508 112.217 30.0342 119.094C30.3135 119.357 30.5929 119.619 30.8722 119.882C52.9588 120.039 75.0454 120.039 97.132 119.882C97.9514 119.409 98.2494 118.744 98.1004 117.852ZM51.1524 81.6257C48.2473 74.4155 50.1282 68.6054 56.7951 64.1252C58.8622 63.0927 61.0225 62.4627 63.2758 62.2177C70.6318 62.4452 75.4551 65.8403 77.8016 72.368C79.1052 78.9482 76.7587 84.0408 70.7249 87.5934C62.3819 90.7435 55.864 88.766 51.1338 81.6257H51.1524ZM34.2243 116.154C38.0978 102.084 47.7072 94.3311 63.0337 92.9136C76.5352 93.2636 86.1818 99.1263 91.9735 110.502C92.6998 112.357 93.2958 114.229 93.7799 116.154C73.9281 116.452 54.0762 116.452 34.2429 116.154H34.2243Z" fill="#44C5FF"/>
<path fill-rule="evenodd" clip-rule="evenodd" d="M39.2711 66.4003C39.3083 67.0303 39.0476 67.5553 38.5634 67.9753C34.0753 70.3904 29.5872 72.8055 25.1178 75.1856C22.3802 75.4831 21.5794 74.4155 22.7154 72.0355C27.4084 69.5679 32.0454 67.0478 36.6453 64.4752C38.2468 64.2652 39.1407 64.8953 39.2711 66.4003Z" fill="#44C5FF"/>
<path fill-rule="evenodd" clip-rule="evenodd" d="M105.419 74.853C104.618 75.2906 103.799 75.4131 102.886 75.2031C98.417 72.8055 93.9289 70.3904 89.4408 67.9928C88.3793 66.6628 88.5469 65.4903 89.925 64.4927C91.1541 64.4927 92.2715 64.8428 93.2771 65.5253C97.2065 67.6603 101.117 69.7954 105.047 71.948C105.866 72.8405 105.978 73.8205 105.419 74.8705V74.853Z" fill="#44C5FF"/>
</svg>
