

<svg width="128" height="128" viewBox="0 0 128 128" fill="none" xmlns="http://www.w3.org/2000/svg">
<path fill-rule="evenodd" clip-rule="evenodd" d="M119.431 100.616C113.745 102.051 108.023 103.346 102.267 104.483C101.497 104.361 100.903 103.976 100.518 103.311C100.36 97.501 100.36 91.7089 100.518 85.9168C101.34 84.6744 102.407 84.4469 103.684 85.2169C103.929 85.4794 104.139 85.7943 104.279 86.1443C104.349 89.6791 104.437 93.1963 104.507 96.7311C116.054 81.4896 118.871 64.7084 112.975 46.4222C106.449 29.9559 94.7441 19.1067 77.8257 13.8745C55.5185 8.79989 37.0604 15.0469 22.4864 32.5632C10.9042 48.977 8.87467 66.5107 16.3804 85.2169C19.1272 91.184 22.8188 96.5211 27.4202 101.193C27.7002 103.801 26.6504 104.64 24.2535 103.661C10.9042 89.6266 5.77791 72.9678 8.87467 53.7192C13.2311 33.4381 25.0058 19.3691 44.2162 11.5122C48.9751 9.77982 53.8389 8.64241 58.7902 8.09994C81.5873 6.94503 99.258 15.7994 111.785 34.663C120.848 50.3069 122.405 66.6682 116.491 83.782C114.392 89.2941 111.523 94.3512 107.918 98.9359C110.823 98.5159 113.727 97.9735 116.614 97.3085C119.606 96.696 120.533 97.7985 119.431 100.598V100.616Z" fill="#44C5FF"/>
<path fill-rule="evenodd" clip-rule="evenodd" d="M104.262 57.2364C104.087 56.6414 103.754 56.204 103.212 55.9415C100.57 55.889 97.9458 55.784 95.339 55.5915C94.5866 52.8442 93.5369 50.2194 92.1722 47.7171C93.7643 45.8972 95.4614 44.1298 97.211 42.45C97.5434 41.925 97.6134 41.3825 97.456 40.8051C94.5342 37.4103 91.4374 34.1556 88.1657 31.0408C87.3434 30.4108 86.4861 30.3233 85.5763 30.8133C83.8792 32.5807 82.1296 34.2606 80.2926 35.8704C77.7382 34.488 75.0613 33.4031 72.297 32.5632C72.227 29.9734 72.1395 27.4011 72.0695 24.8112C71.8071 24.2688 71.3872 23.9013 70.7749 23.7613C66.2259 23.6388 61.6945 23.6038 57.1456 23.6388C56.6032 23.8838 56.1658 24.2863 55.8509 24.8287C55.7984 27.4535 55.6935 30.0959 55.501 32.7032C52.7542 33.4381 50.1298 34.488 47.6279 35.8704C45.8083 34.2606 44.0412 32.5807 42.3442 30.8133C41.8368 30.4808 41.2944 30.4108 40.717 30.5858C37.3229 33.5081 34.0686 36.5879 30.9544 39.8602C30.3245 40.6826 30.2371 41.5575 30.7269 42.4675C32.494 44.1473 34.1736 45.9147 35.7657 47.7346C34.4011 50.2369 33.3338 52.8617 32.599 55.609C29.9921 55.819 27.3677 55.924 24.7259 55.959C24.1835 56.2215 23.8336 56.6589 23.6761 57.2539C23.5187 61.8036 23.5187 66.3357 23.6761 70.8854C23.8511 71.4979 24.1835 71.9353 24.7259 72.1803C27.3328 72.2503 29.9046 72.3378 32.494 72.4078C33.3163 75.1901 34.4011 77.8499 35.7832 80.4047C34.1911 82.2421 32.5115 83.992 30.7444 85.6893C30.2546 86.5993 30.342 87.4392 30.9719 88.2792C33.9112 91.2189 36.833 94.1587 39.7723 97.0985C40.5946 97.7285 41.4519 97.7985 42.3617 97.326C44.0587 95.5586 45.8258 93.8613 47.6454 92.2689C49.08 92.9688 50.5322 93.6338 52.0018 94.2637C41.8543 99.0934 36.0457 107.09 34.611 118.237C34.7685 118.972 35.1709 119.514 35.7832 119.882C54.3638 120.039 72.9268 120.039 91.4899 119.882C91.8573 119.584 92.1197 119.252 92.3122 118.832C91.3499 107.528 85.7513 99.4084 75.5162 94.4912C77.1258 93.7913 78.7529 93.0388 80.345 92.2689C82.1821 93.8613 83.9317 95.5586 85.6288 97.326C86.1362 97.641 86.6785 97.711 87.2559 97.5535C90.6676 94.6312 93.9218 91.5339 97.0186 88.2617C97.6484 87.4392 97.7359 86.5818 97.246 85.6719C95.4964 83.9745 93.7993 82.2246 92.2072 80.3872C93.5719 77.8324 94.6741 75.1726 95.4964 72.3903C98.0858 72.3203 100.675 72.2328 103.265 72.1628C103.807 71.9178 104.157 71.4804 104.314 70.8679C104.472 66.3182 104.472 61.7861 104.314 57.2364H104.262ZM57.8454 68.8731C55.1161 70.168 52.9816 72.0928 51.3895 74.6301C46.3157 67.7181 46.2457 60.7536 51.162 53.7192C54.1363 50.2719 57.8629 48.242 62.3244 47.6121C71.5622 47.5596 77.4757 51.9518 80.0826 60.7711C81.0274 66.1958 79.7152 70.9729 76.0761 75.1026C71.6146 68.4356 65.5261 66.3707 57.8629 68.8731H57.8454ZM65.6136 91.6739C58.4578 92.1989 54.3813 88.9091 53.384 81.8046C53.8739 76.5725 56.6032 73.2477 61.607 71.8128C67.9405 71.3229 71.8946 74.1402 73.4867 80.2822C73.8891 86.1968 71.2822 90.0115 65.6136 91.6739ZM86.871 112.007C87.3609 113.355 87.7808 114.737 88.1657 116.12C71.7896 116.242 55.4135 116.277 39.0549 116.242C41.3469 106.005 47.5229 99.4434 57.618 96.6086C59.2801 96.2586 60.9247 95.9786 62.5518 95.7861C74.1165 96.1186 82.2171 101.508 86.8885 112.025L86.871 112.007ZM100.378 68.2781C97.9458 68.2431 95.5314 68.2781 93.0995 68.4006C92.7671 68.5056 92.4871 68.6981 92.2772 68.9781C91.6124 71.3054 90.825 73.5627 89.9328 75.8026C89.0405 77.4299 88.2182 79.0923 87.4658 80.7547C87.4658 81.1747 87.5883 81.5597 87.8158 81.9271C89.4254 83.537 91.035 85.1469 92.6446 86.7568C90.6501 88.7516 88.6381 90.764 86.661 92.7413C84.9639 90.974 83.2144 89.2941 81.3773 87.6842C80.9049 87.5267 80.4325 87.5267 79.9601 87.6842C78.438 88.7516 76.7934 89.5741 75.0263 90.1515C77.1958 86.9318 77.9656 83.4145 77.3708 79.5648C84.0192 73.2127 85.9437 65.6008 83.1269 56.7639C79.5227 48.3995 73.1368 44.0074 63.969 43.6049C53.7339 44.1823 47.103 49.3445 44.1112 59.1263C42.5016 66.5982 44.3212 73.1078 49.5174 78.6374C49.0276 82.5746 49.7624 86.2668 51.7569 89.6791C50.4272 89.1716 49.15 88.4891 47.9953 87.6667C47.5229 87.5092 47.0505 87.5092 46.5781 87.6667C44.7411 89.2766 42.9915 90.9565 41.2944 92.7238C39.2999 90.729 37.3054 88.7166 35.3108 86.7393L40.1397 81.9096C40.3496 81.5596 40.4721 81.1572 40.4896 80.7372C39.2299 78.3924 38.0927 75.9425 37.0604 73.4402C36.623 72.0578 36.2381 70.6404 35.8882 69.223C35.6083 68.8556 35.2584 68.5931 34.8385 68.4006C32.4065 68.2781 29.9921 68.2431 27.5602 68.2781V59.8087C30.1671 59.9137 32.7565 59.8087 35.3108 59.4587C35.5908 59.2488 35.8007 58.9688 35.9057 58.6363C36.8155 54.8566 38.3026 51.3218 40.3671 48.0496C40.5421 47.4021 40.4546 46.7547 40.1397 46.1597C38.5301 44.5498 36.9205 42.9574 35.3108 41.3475C37.3229 39.3352 39.3174 37.3403 41.2944 35.3455C42.904 36.9554 44.5136 38.5652 46.1233 40.1751C46.4732 40.3851 46.8756 40.5251 47.313 40.5251C49.4475 39.4052 51.6344 38.3378 53.8914 37.3578C55.501 36.8329 57.1631 36.3604 58.8252 35.9404C59.1751 35.6605 59.4551 35.3105 59.6475 34.8905C59.7525 32.4582 59.805 30.0434 59.7525 27.611H68.2205C68.1155 30.2183 68.2205 32.8082 68.5704 35.363C68.7803 35.643 69.0603 35.8529 69.3752 35.9579C73.1543 36.8679 76.6884 38.3553 79.9601 40.4201C80.625 40.6126 81.2548 40.5076 81.8497 40.1926C83.4593 38.5827 85.0689 36.9904 86.6785 35.363C88.6731 37.3753 90.6851 39.3702 92.6621 41.365C91.0525 42.9749 89.4429 44.5673 87.8333 46.1772C87.6233 46.5272 87.5008 46.9471 87.4833 47.3671C88.7255 49.7119 89.8628 52.1443 90.895 54.6466C91.3324 56.0465 91.7173 57.4464 92.0672 58.8813C92.3472 59.2313 92.6971 59.5112 93.117 59.7037C95.5489 59.8087 97.9633 59.8612 100.395 59.8087V68.2781H100.378Z" fill="#44C5FF"/>
</svg>
