
<svg width="128" height="128" viewBox="0 0 128 128" fill="none" xmlns="http://www.w3.org/2000/svg">
<path fill-rule="evenodd" clip-rule="evenodd" d="M71.0273 17.504C68.717 19.8494 66.3891 22.1422 64.0263 24.4001C61.6634 22.1422 59.3355 19.8494 57.0252 17.504C57.8653 16.6814 58.7054 15.8412 59.5281 15.0011C60.4207 15.8762 61.2783 16.7514 62.1535 17.6265C62.2585 14.406 62.311 11.203 62.2585 8H65.759C65.724 11.203 65.759 14.406 65.864 17.6265L68.4895 15.0011C69.3296 15.8412 70.1697 16.6814 71.0098 17.504H71.0273Z" fill="#44C5FF"/>
<path fill-rule="evenodd" clip-rule="evenodd" d="M52.1944 17.9591C51.1267 21.057 50.0241 24.155 48.9039 27.253C45.9109 26.2379 42.9355 25.2227 39.9425 24.19C39.8725 23.1399 40.1 22.1247 40.5901 21.1271C41.8328 21.1271 43.0405 21.4071 44.1957 22.0197C42.953 19.1317 41.6053 16.2263 40.1525 13.3733C40.1875 13.1983 40.2575 13.0583 40.3626 12.9358C41.1327 12.5857 41.8678 12.1832 42.5504 11.7456C42.8304 11.6931 43.093 11.7806 43.3205 11.9556C44.7032 14.7211 46.086 17.4865 47.4687 20.2694C48.0288 19.1667 48.4138 17.9941 48.6589 16.7689C49.884 17.0139 51.0567 17.4165 52.1594 17.9766L52.1944 17.9591Z" fill="#44C5FF"/>
<path fill-rule="evenodd" clip-rule="evenodd" d="M88.5301 24.1725C85.5371 25.2052 82.5441 26.2203 79.5512 27.2355C78.431 24.1375 77.3458 21.0395 76.2607 17.9416C77.3808 17.3815 78.5535 16.9789 79.7612 16.7339C80.0062 17.9591 80.4088 19.1317 80.9689 20.2344C82.3866 17.3815 83.8218 14.546 85.2396 11.7106C86.4298 11.9731 87.4449 12.5157 88.3025 13.3383C86.8323 16.2088 85.5021 19.0967 84.2594 21.9847C85.4146 21.3721 86.6048 21.092 87.865 21.092C88.3551 22.0897 88.5826 23.1224 88.5126 24.155L88.5301 24.1725Z" fill="#44C5FF"/>
<path fill-rule="evenodd" clip-rule="evenodd" d="M38.8748 37.0895C35.7068 37.8597 32.5738 38.7348 29.4584 39.715C29.0558 38.6298 28.6882 37.5446 28.3732 36.4244C29.5634 35.9344 30.8236 35.5143 32.0838 35.2343C29.2308 33.589 26.3954 31.9437 23.5424 30.2985C24.12 29.3883 24.6276 28.4257 25.0827 27.4455C28.0231 28.8283 30.8936 30.3685 33.7115 32.0488C33.5365 30.9636 33.2739 29.8609 32.9414 28.7582C33.0114 28.6007 33.0814 28.4607 33.1514 28.3207C34.1666 27.8656 35.1817 27.6556 36.2144 27.6556C37.1946 30.7711 38.0697 33.904 38.8398 37.072L38.8748 37.0895Z" fill="#44C5FF"/>
<path fill-rule="evenodd" clip-rule="evenodd" d="M96.4063 35.2343C97.684 35.5318 98.9267 35.9344 100.117 36.4244C99.7843 37.5271 99.4168 38.6123 99.0317 39.715C95.9162 38.7348 92.7833 37.8597 89.6153 37.0895C90.4204 33.869 91.2955 30.6485 92.2407 27.463C93.2908 27.6906 94.2885 27.9706 95.3036 28.3557C95.3737 28.4957 95.4437 28.6357 95.5137 28.7932C95.1636 29.8784 94.9186 30.9811 94.7436 32.0838C97.474 30.491 100.257 28.9508 103.057 27.4805C103.792 28.3557 104.388 29.3008 104.913 30.3335C102.077 31.9787 99.2418 33.624 96.3888 35.2693L96.4063 35.2343Z" fill="#44C5FF"/>
<path fill-rule="evenodd" clip-rule="evenodd" d="M75.403 47.5912C74.4579 42.1128 71.2549 38.9098 65.7765 37.9647V34.2541H62.276V37.9647C56.8151 38.9098 53.5946 42.1128 52.6495 47.5912H48.9389V51.0917H52.6495C53.5946 56.5701 56.8151 59.7731 62.276 60.7182V64.4288H65.7765V60.7182C71.2549 59.7731 74.4579 56.5701 75.403 51.0917H79.1136V47.5912H75.403ZM71.9025 51.3193C71.0273 54.3823 69.0495 56.3601 65.9866 57.2352C65.7765 56.15 65.7065 55.0649 65.7765 53.9447H62.276C62.346 55.0474 62.276 56.1325 62.0659 57.2352C59.003 56.3601 57.0427 54.3823 56.1675 51.3193C57.2352 51.1092 58.3379 51.0217 59.4405 51.1092V47.6087C58.3554 47.6787 57.2527 47.6087 56.1675 47.3987C56.6401 45.9634 57.3577 44.6857 58.3379 43.5656C59.423 42.6904 60.5957 42.0078 61.8384 41.4827C62.2585 42.4804 62.416 43.5831 62.276 44.7732H65.7765C65.7065 43.6706 65.7765 42.5854 65.9866 41.4827C69.0495 42.3754 71.0273 44.3357 71.9025 47.3987C70.8173 47.6087 69.7321 47.6962 68.612 47.6087V51.1092C69.7146 51.0392 70.7998 51.1092 71.9025 51.3193Z" fill="#44C5FF"/>
<path fill-rule="evenodd" clip-rule="evenodd" d="M34.4816 50.4441C32.2238 52.807 29.9309 55.1349 27.5856 57.4452C26.7454 56.6051 25.9228 55.765 25.0827 54.9248C25.9578 54.0497 26.8329 53.1746 27.6906 52.2994C24.4876 52.1944 21.2846 52.1594 18.0816 52.1944V48.6939C21.2846 48.7464 24.4876 48.6939 27.6906 48.5888C26.8154 47.7137 25.9403 46.8386 25.0827 45.9809C25.9228 45.1758 26.7279 44.3357 27.4805 43.4605C29.8959 45.7184 32.2238 48.0463 34.4816 50.4616V50.4441Z" fill="#44C5FF"/>
<path fill-rule="evenodd" clip-rule="evenodd" d="M110.409 52.1769C107.206 52.1419 103.985 52.1769 100.782 52.2819C101.657 53.1746 102.532 54.0322 103.407 54.9073C102.567 55.7475 101.727 56.5876 100.887 57.4277C98.5592 55.1174 96.2488 52.7895 93.9909 50.4266C96.2663 48.0988 98.5241 45.7534 100.782 43.4255C101.692 44.2132 102.567 45.0533 103.407 45.9459C102.532 46.8211 101.657 47.6962 100.782 48.5538C103.985 48.6589 107.206 48.7114 110.409 48.6589V52.1769Z" fill="#44C5FF"/>
<path fill-rule="evenodd" clip-rule="evenodd" d="M61.4008 69.2596C58.5304 73.1627 54.7323 74.4404 50.0241 73.0927C48.1338 72.3051 46.5585 71.0974 45.3158 69.4871C45.1758 69.3121 45.2108 69.1546 45.4208 69.0495C46.366 68.542 47.2411 67.9644 48.0463 67.2993C50.7942 70.5898 53.9447 70.9748 57.4627 68.4895C57.8653 68.1394 58.1978 67.7368 58.4429 67.2993C59.4055 67.9819 60.4032 68.6295 61.4008 69.2596Z" fill="#44C5FF"/>
<path fill-rule="evenodd" clip-rule="evenodd" d="M82.8417 69.2596C79.9712 73.1627 76.1732 74.4404 71.4649 73.0927C69.5746 72.3051 68.0169 71.0974 66.7742 69.4871C66.6167 69.3121 66.6517 69.1546 66.8792 69.0495C67.8068 68.542 68.682 67.9644 69.4871 67.2993C72.13 70.4323 75.193 70.9048 78.676 68.717C79.1661 68.3144 79.5687 67.8244 79.8662 67.2993C80.8289 67.9819 81.8265 68.6295 82.8242 69.2596H82.8417Z" fill="#44C5FF"/>
<path fill-rule="evenodd" clip-rule="evenodd" d="M116.097 112.246C113.279 110.636 106.505 108.448 103.337 107.468C95.3736 104.878 87.3924 102.27 79.4462 99.6618C79.3061 97.544 79.3061 95.4262 79.4462 93.3083C85.4846 89.0027 89.1952 83.1568 90.5954 75.8056C94.096 74.9305 96.5113 72.8126 97.8065 69.4521C98.2266 67.0192 98.5591 64.5863 98.8042 62.1185C98.6992 61.1208 98.5241 60.1406 98.2616 59.1605C96.8789 55.9225 94.4285 54.1897 90.9105 53.9097C90.7004 43.7581 86.3422 35.9869 77.8009 30.596C68.5245 25.4852 56.2375 25.9053 47.0661 32.7139C47.0311 32.7489 46.9961 32.7664 46.9611 32.7839C40.5201 38.3147 37.2471 45.3508 37.1071 53.8922C36.2844 53.8572 35.4968 53.9622 34.6917 54.2247C31.0336 55.5199 29.0558 58.1103 28.7932 61.9959C29.0033 64.1313 29.2483 66.2316 29.5634 68.3494C30.7711 72.3401 33.3965 74.8079 37.4396 75.7881C38.8573 83.1392 42.5679 88.9852 48.5888 93.2908C48.7464 95.4087 48.7464 97.5265 48.5888 99.6443C37.1771 103.39 25.7653 107.153 14.3535 110.916C10.8179 112.281 8.70011 114.802 8 118.46V120H11.5005C11.6056 117.392 12.8483 115.537 15.2111 114.417C26.4654 110.584 37.7722 106.908 49.1314 103.372C49.3765 104.685 49.919 105.84 50.7592 106.873C54.3997 111.126 58.8104 114.329 63.9913 116.499C69.1721 114.329 73.5827 111.109 77.2233 106.873C78.0634 105.84 78.606 104.685 78.8511 103.372C86.4298 105.665 93.9734 108.081 101.5 110.619C101.5 110.619 101.535 110.619 101.57 110.654C103.495 111.371 109.761 113.314 111.669 113.979C112.666 114.434 113.594 114.942 114.522 115.502C115.852 116.692 116.534 118.197 116.499 120H120V118.46C119.545 115.869 118.25 113.769 116.062 112.229L116.097 112.246ZM90.928 57.4452C93.4834 57.9878 94.9361 59.5631 95.3211 62.136C95.0936 64.3063 94.7611 66.4591 94.3235 68.5945C93.6584 70.1872 92.5207 71.2899 90.928 71.885V57.4452ZM37.002 72.095C35.3218 71.2899 34.0966 70.0647 33.2915 68.3844C32.8364 66.3366 32.5213 64.2538 32.3113 62.1535C32.6263 59.8431 33.8515 58.2854 36.0219 57.4627H37.1071C37.1421 62.346 37.107 67.2293 37.002 72.1125V72.095ZM75.508 102.725C73.7403 105.875 71.2899 108.396 68.1744 110.268C66.8267 111.074 65.444 111.844 64.0263 112.579C60.2982 110.724 56.9727 108.308 54.0672 105.368C53.2621 104.318 52.667 103.145 52.3169 101.867C52.2119 99.7493 52.1769 97.6315 52.2119 95.5137C60.0181 98.9967 67.8244 98.9967 75.6306 95.5137C75.9456 97.9291 75.8931 100.344 75.5255 102.725H75.508ZM60.0881 94.306C49.0439 91.7331 42.5854 84.8545 40.7126 73.6528C40.6776 69.9597 40.6426 66.2841 40.6076 62.591C40.5726 58.3204 40.6776 54.0672 40.9401 49.7965C42.0603 44.2657 44.6682 39.6624 48.8339 35.9694C57.0252 29.9309 65.689 29.2483 72.9877 32.1888C81.3715 35.9694 86.1497 42.4279 87.3224 51.5468C87.4799 58.8454 87.4799 66.1441 87.3224 73.4252C86.9723 76.8558 85.9747 80.0763 84.2769 83.0517C78.5185 91.6631 70.4673 95.4262 60.1056 94.3235L60.0881 94.306Z" fill="#44C5FF"/>
</svg>
