<svg width="36" height="36" viewBox="0 0 36 36" fill="none" xmlns="http://www.w3.org/2000/svg">
<path fill-rule="evenodd" clip-rule="evenodd" d="M33.97 16.75C33.78 15.385 33.085 14.37 31.885 13.705C32.11 13.495 32.3 13.25 32.45 12.98C33.015 11.51 32.65 10.33 31.355 9.44502C29.875 8.82502 28.675 9.16502 27.755 10.47C27.225 11.66 27.39 12.74 28.25 13.705C28.16 13.775 28.075 13.84 27.985 13.905C27.505 13.24 26.91 12.7 26.2 12.285C26.68 11.85 26.975 11.31 27.095 10.665C27.255 9.19502 26.67 8.15002 25.34 7.52502C23.765 7.06502 22.56 7.54002 21.735 8.94502C21.245 10.215 21.475 11.33 22.43 12.285C22.27 12.395 22.105 12.49 21.935 12.585C21.46 11.8 20.81 11.205 19.985 10.8C20.92 9.87002 21.22 8.77002 20.88 7.49502C20.265 6.01502 19.155 5.33002 17.54 5.44502C16.955 5.57002 16.425 5.82502 15.955 6.20502C14.615 7.75002 14.64 9.28502 16.02 10.8C15.23 11.245 14.58 11.84 14.07 12.585C13.9 12.49 13.73 12.395 13.575 12.285C13.76 12.12 13.93 11.93 14.07 11.725C14.91 9.99502 14.525 8.61502 12.91 7.59002C11.455 7.05502 10.25 7.39502 9.30997 8.61502C8.60497 9.96002 8.76997 11.185 9.80497 12.285C9.09497 12.7 8.49997 13.24 8.01997 13.905C7.92997 13.84 7.84497 13.775 7.75497 13.705C8.43497 13.005 8.68997 12.17 8.51497 11.195C8.27497 10.205 7.66497 9.55502 6.69497 9.24502C5.55497 8.97002 4.59997 9.27002 3.81997 10.135C3.01497 11.405 3.11497 12.595 4.11997 13.705C2.91497 14.37 2.22497 15.385 2.03497 16.75C1.98997 18.425 1.98997 20.1 2.03497 21.775C2.31997 22.57 2.87997 22.88 3.71997 22.7C3.73497 25.21 3.78997 27.725 3.88497 30.235C3.93997 30.38 4.03997 30.48 4.18497 30.535C5.32997 30.575 6.47497 30.575 7.61997 30.535C7.80997 30.48 7.92997 30.355 7.98497 30.17C8.05497 27.68 8.10997 25.19 8.14997 22.7C8.43997 22.71 8.72497 22.7 9.00997 22.665C9.11497 22.62 9.21497 22.565 9.30997 22.5C9.36997 25.055 9.43497 27.615 9.50497 30.17C9.55997 30.33 9.65497 30.45 9.80497 30.535C11.06 30.575 12.315 30.575 13.575 30.535C13.715 30.48 13.815 30.38 13.87 30.235C13.95 27.5 14.03 24.77 14.1 22.035C14.365 22.05 14.63 22.035 14.895 22.005C15.125 21.985 15.31 21.885 15.455 21.705C15.525 24.53 15.59 27.35 15.655 30.17C15.73 30.335 15.855 30.455 16.02 30.535C17.34 30.575 18.665 30.575 19.985 30.535C20.105 30.48 20.205 30.405 20.285 30.3C20.405 27.44 20.49 24.575 20.545 21.705C20.675 21.865 20.84 21.965 21.045 22.005C21.33 22.035 21.615 22.05 21.905 22.035C21.975 24.77 22.055 27.5 22.135 30.235C22.19 30.38 22.29 30.48 22.43 30.535C23.69 30.575 24.945 30.575 26.2 30.535C26.345 30.45 26.445 30.33 26.5 30.17C26.565 27.615 26.635 25.055 26.695 22.5C27.055 22.69 27.44 22.78 27.855 22.765C27.895 25.235 27.95 27.7 28.02 30.17C28.075 30.355 28.195 30.48 28.38 30.535C29.53 30.575 30.675 30.575 31.82 30.535C31.965 30.48 32.06 30.38 32.115 30.235C32.215 27.745 32.27 25.255 32.28 22.765C33.015 22.875 33.555 22.61 33.9 21.97C33.98 21.07 34.01 20.17 34 19.26C33.99 18.425 33.98 17.585 33.97 16.75ZM4.54997 11.13C4.79997 10.735 5.13997 10.445 5.57497 10.27C6.45997 10.195 7.06497 10.57 7.38997 11.395C7.49997 12.63 6.93997 13.255 5.70497 13.275C4.61497 12.94 4.22997 12.22 4.54997 11.13ZM7.22497 21.74C7.13497 21.815 7.07997 21.915 7.05997 22.035C6.99497 24.505 6.93997 26.975 6.89497 29.44H4.97997C4.92497 26.93 4.84997 24.415 4.74497 21.905C4.71497 21.785 4.63497 21.705 4.51497 21.675C4.06997 21.66 3.62997 21.625 3.19497 21.575C3.11497 20.01 3.10497 18.445 3.15997 16.88C3.38997 15.56 4.14997 14.745 5.43997 14.435C6.25497 14.335 6.97997 14.535 7.61997 15.03C7.57497 15.16 7.54497 15.29 7.52497 15.425C7.47997 17.32 7.47997 19.215 7.52497 21.11C7.59497 21.295 7.69497 21.46 7.81997 21.61C7.61497 21.62 7.41497 21.665 7.22497 21.74ZM10.235 9.28002C10.5 8.91002 10.84 8.64502 11.26 8.48502C12.71 8.40502 13.405 9.09002 13.34 10.535C13.02 11.505 12.35 11.935 11.325 11.825C10.1 11.35 9.73997 10.5 10.235 9.28002ZM13.31 20.945C13.165 21 13.065 21.1 13.01 21.245C12.915 23.975 12.84 26.71 12.78 29.44H10.6C10.555 26.685 10.48 23.93 10.365 21.18C10.285 21.075 10.185 21 10.07 20.945C9.58997 20.935 9.11497 20.9 8.64497 20.845C8.60497 19.085 8.60497 17.32 8.64497 15.56C8.99497 14.12 9.88497 13.26 11.325 12.98C12.195 12.925 12.965 13.17 13.64 13.705C13.54 14.095 13.485 14.495 13.475 14.895C13.43 16.595 13.43 18.29 13.475 19.99C13.495 20.325 13.615 20.625 13.835 20.88C13.66 20.9 13.485 20.925 13.31 20.945ZM16.185 7.95502C16.44 7.22502 16.935 6.76002 17.67 6.56502C18.975 6.53502 19.725 7.16502 19.92 8.45002C19.7 9.81502 18.91 10.435 17.54 10.3C16.44 9.89002 15.99 9.10502 16.185 7.95502ZM18.695 16.42C18.485 16.64 18.25 16.84 18 17.015C17.69 16.835 17.45 16.59 17.275 16.285C17.525 15.345 17.745 14.395 17.935 13.445C18.01 13.45 18.05 13.495 18.07 13.575C18.31 14.52 18.52 15.47 18.695 16.42ZM21.405 19.92C21.385 20.025 21.33 20.1 21.24 20.155C20.755 20.175 20.27 20.195 19.785 20.22C19.565 20.31 19.44 20.475 19.425 20.715C19.36 23.625 19.305 26.535 19.26 29.44H16.745C16.71 26.445 16.635 23.445 16.515 20.45C16.435 20.35 16.335 20.27 16.215 20.22C15.705 20.205 15.2 20.175 14.695 20.12C14.62 18.16 14.61 16.2 14.665 14.235C15 12.92 15.805 12.04 17.075 11.59C17.145 11.58 17.21 11.595 17.275 11.625C16.845 13.295 16.425 14.97 16.02 16.65C16.075 16.825 16.16 16.975 16.285 17.11C16.745 17.485 17.21 17.86 17.67 18.235C17.89 18.37 18.11 18.37 18.335 18.235C18.875 17.805 19.39 17.355 19.885 16.88C19.93 16.57 19.905 16.26 19.82 15.955C19.46 14.51 19.1 13.065 18.73 11.625C20.12 11.96 20.99 12.83 21.34 14.235C21.445 16.13 21.465 18.025 21.405 19.92ZM22.86 9.28002C23.125 8.91002 23.47 8.64502 23.885 8.48502C25.34 8.40502 26.035 9.09002 25.97 10.535C25.53 11.675 24.725 12.06 23.555 11.69C22.615 11.095 22.385 10.29 22.86 9.28002ZM27.355 20.845C26.89 20.9 26.415 20.935 25.935 20.945C25.655 21.06 25.535 21.27 25.57 21.575C25.52 24.195 25.465 26.82 25.405 29.44H23.225C23.165 26.71 23.09 23.975 22.995 21.245C22.94 21.1 22.84 21 22.695 20.945C22.52 20.925 22.345 20.9 22.165 20.88C22.29 20.73 22.39 20.565 22.465 20.385C22.51 18.315 22.51 16.24 22.465 14.17C22.44 14.025 22.405 13.88 22.365 13.74C22.835 13.305 23.39 13.055 24.02 12.98C25.29 12.94 26.27 13.445 26.96 14.5C27.145 14.835 27.275 15.185 27.355 15.56C27.4 17.32 27.4 19.085 27.355 20.845ZM28.81 10.93C29.075 10.615 29.395 10.395 29.77 10.27C30.855 10.215 31.47 10.72 31.62 11.79C31.41 12.955 30.725 13.425 29.57 13.21C28.605 12.695 28.355 11.935 28.81 10.93ZM32.81 21.575C32.375 21.625 31.935 21.66 31.49 21.675C31.37 21.705 31.29 21.785 31.26 21.905C31.155 24.415 31.08 26.93 31.025 29.44H29.11C29.065 26.975 29.01 24.505 28.945 22.035C28.925 21.915 28.87 21.815 28.78 21.74C28.59 21.665 28.39 21.62 28.185 21.61C28.31 21.46 28.41 21.295 28.48 21.11C28.525 19.24 28.525 17.365 28.48 15.49C28.46 15.335 28.43 15.18 28.38 15.03C28.75 14.76 29.145 14.56 29.57 14.435C31.355 14.335 32.445 15.15 32.845 16.88C32.9 18.445 32.89 20.01 32.81 21.575Z" fill="#44C5FF"/>
</svg>
