<svg width="36" height="36" viewBox="0 0 36 36" fill="none" xmlns="http://www.w3.org/2000/svg">
<path fill-rule="evenodd" clip-rule="evenodd" d="M32.815 16.28C31.81 16.005 30.79 15.84 29.75 15.78C30.45 13.87 30.56 11.925 30.095 9.94C29.975 9.655 29.755 9.495 29.44 9.47C27.335 9.02 25.29 9.215 23.315 10.065C22.785 6.69 21.16 4.005 18.44 2H17.69C14.97 4.005 13.345 6.69 12.815 10.065C10.84 9.215 8.795 9.015 6.69 9.47C6.375 9.495 6.155 9.655 6.035 9.94C5.565 11.925 5.68 13.87 6.375 15.78C4.94 15.82 3.565 16.13 2.25 16.72C2.145 16.845 2.06 16.98 2 17.125V18.565C2.115 19.615 2.375 20.635 2.785 21.625C4.285 24.845 6.795 26.72 10.315 27.25V28.75C10.055 28.765 9.805 28.815 9.565 28.905C8.735 29.29 8.2 29.925 7.97 30.815C7.795 32.425 8.47 33.48 10 33.97C15.375 34.01 20.75 34.01 26.125 33.97C26.625 33.855 27.065 33.625 27.44 33.28C28.28 32.28 28.415 31.185 27.845 30C27.33 29.21 26.605 28.775 25.66 28.69C25.615 28.23 25.615 27.77 25.66 27.315C30.14 26.555 32.92 23.97 34 19.565V16.815C33.625 16.605 33.23 16.425 32.815 16.28ZM7.19 10.69C9.11 10.345 10.945 10.605 12.69 11.47C12.665 11.73 12.7 11.99 12.785 12.25C13.045 12.575 13.365 12.65 13.75 12.47C13.94 12.315 14.03 12.12 14.035 11.875C14.08 8.465 15.385 5.65 17.94 3.44C18.025 3.43 18.11 3.44 18.19 3.47C20.75 5.67 22.055 8.47 22.095 11.875C22.165 12.46 22.49 12.675 23.065 12.53C23.16 12.44 23.25 12.345 23.345 12.25C23.43 11.99 23.465 11.73 23.44 11.47C25.185 10.605 27.02 10.345 28.94 10.69C29.485 14.455 28.2 17.415 25.095 19.565C24.125 18.03 22.715 17.27 20.875 17.28C21.575 16.37 21.86 15.34 21.72 14.19C21.45 12.035 20.23 10.865 18.065 10.69C15.895 10.865 14.68 12.035 14.41 14.19C14.27 15.34 14.555 16.37 15.25 17.28C13.375 17.205 11.925 17.945 10.91 19.5C7.89 17.33 6.65 14.395 7.19 10.69ZM20.44 14.655C20.4 16.225 19.61 17.11 18.065 17.315C16.52 17.11 15.73 16.225 15.69 14.655C15.735 13.19 16.46 12.305 17.875 12C19.525 12.115 20.38 13 20.44 14.655ZM3.535 19.69C3.37 19.03 3.32 18.36 3.375 17.69C4.215 17.38 5.07 17.19 5.94 17.125C6.295 17.15 6.65 17.18 7 17.22C7.85 18.695 8.995 19.88 10.44 20.78C10.395 20.89 10.36 21.005 10.345 21.125C10.315 22.73 10.305 24.335 10.315 25.94C6.765 25.25 4.505 23.17 3.535 19.69ZM17.47 30.44C17.405 30.98 17.365 31.52 17.345 32.065C17.23 32.345 17.035 32.545 16.75 32.655C14.565 32.7 12.375 32.7 10.19 32.655C9.17 32.115 8.98 31.365 9.625 30.405C9.89 30.19 10.18 30.055 10.5 30C12.88 29.98 15.255 30 17.625 30.065C17.56 30.18 17.505 30.305 17.47 30.44ZM14.125 28.69C14.14 26.5 14.125 24.315 14.095 22.125C13.86 21.67 13.515 21.555 13.065 21.78C12.94 21.865 12.87 21.98 12.845 22.125C12.815 24.315 12.805 26.5 12.815 28.69H11.625C11.6 26.125 11.625 23.56 11.72 21C12.12 19.695 12.985 18.9 14.315 18.625C16.75 18.615 19.19 18.625 21.625 18.655C23.04 18.945 23.925 19.79 24.285 21.19C24.315 23.69 24.325 26.19 24.315 28.69H23.125C23.14 27.355 23.125 26.02 23.095 24.69C22.725 24.22 22.33 24.2 21.91 24.625C21.89 24.71 21.865 24.795 21.845 24.875C21.815 26.145 21.805 27.415 21.815 28.69H14.125ZM25.94 30.095C26.87 30.515 27.11 31.195 26.66 32.125C26.47 32.375 26.23 32.55 25.94 32.655C23.46 32.7 20.98 32.7 18.5 32.655C18.555 32.545 18.605 32.43 18.66 32.315C18.725 31.775 18.765 31.23 18.785 30.69C18.945 30.305 19.23 30.075 19.625 30C21.735 29.97 23.84 30.005 25.94 30.095ZM28.625 24.97C27.69 25.485 26.69 25.81 25.625 25.94C25.645 24.27 25.625 22.605 25.565 20.94C26.075 20.525 26.595 20.12 27.125 19.72C27.93 18.99 28.595 18.155 29.125 17.22C29.35 17.21 29.555 17.175 29.75 17.125C30.785 17.14 31.785 17.325 32.75 17.69C32.73 20.89 31.355 23.315 28.625 24.97Z" fill="#44C5FF"/>
</svg>
