<svg width="36" height="36" viewBox="0 0 36 36" fill="none" xmlns="http://www.w3.org/2000/svg">
<path fill-rule="evenodd" clip-rule="evenodd" d="M34 9.5V9C33.88 8.865 33.735 8.775 33.56 8.715C27.875 8.035 22.19 7.38 16.5 6.75C12.205 7.215 7.91 7.725 3.625 8.28C3.21 8.485 2.93 8.805 2.78 9.25C2.265 10.625 2.355 11.96 3.06 13.25C2.84 13.57 2.685 13.925 2.595 14.31C2.32 15.465 2.455 16.58 3 17.655C2.44 18.41 2.105 19.255 2 20.185V22.31C2.08 22.7 2.175 23.095 2.28 23.5C2.45 24.27 2.88 24.845 3.56 25.215C9.185 25.895 14.81 26.56 20.435 27.215C20.81 27.26 21.185 27.26 21.56 27.215C22.71 27.075 23.855 26.94 25 26.81C24.99 27.54 25 28.27 25.03 29C25.075 29.115 25.145 29.195 25.25 29.25H25.75C25.87 29.175 25.965 29.07 26.03 28.935C26.345 28.35 26.685 27.79 27.06 27.25C27.43 27.705 27.785 28.175 28.125 28.655C28.24 28.715 28.365 28.745 28.5 28.75C28.715 28.77 28.875 28.685 28.97 28.5C29 27.77 29.01 27.04 29 26.31C30.52 26.145 32.04 25.965 33.56 25.78C33.755 25.745 33.9 25.65 34 25.5V25C33.95 24.955 33.91 24.905 33.875 24.84C33.585 24.795 33.345 24.66 33.155 24.435C32.59 23.29 32.405 22.08 32.595 20.81C32.66 20.07 32.92 19.415 33.375 18.84C33.63 18.8 33.84 18.685 34 18.5V18C33.88 17.835 33.715 17.73 33.5 17.685C33.15 17.17 33.005 16.595 33.06 15.965C33.01 15.355 33.155 14.805 33.5 14.31C33.715 14.265 33.88 14.165 34 14V13.5C33.88 13.335 33.715 13.23 33.5 13.185C33.15 12.67 33.005 12.095 33.06 11.465C33.01 10.855 33.155 10.305 33.5 9.81C33.7 9.755 33.865 9.65 34 9.5ZM16.125 7.81C16.605 7.815 17.085 7.85 17.56 7.905C21.3 8.33 25.03 8.79 28.75 9.28C26.335 9.57 23.915 9.86 21.5 10.155C21.165 10.195 20.835 10.195 20.5 10.155C16.575 9.705 12.655 9.225 8.75 8.715C11.22 8.425 13.675 8.12 16.125 7.81ZM3.935 9.31C4.55 9.33 5.155 9.405 5.75 9.53C5.645 9.82 5.57 10.125 5.53 10.435C5.475 11.25 5.505 12.065 5.625 12.875C5.1 12.84 4.58 12.79 4.06 12.715C3.785 12.435 3.63 12.09 3.595 11.685C3.47 10.855 3.585 10.06 3.935 9.31ZM4.53 22.685C4.58 23.23 4.695 23.765 4.875 24.28C4.585 24.28 4.29 24.26 4 24.215C3.865 24.145 3.75 24.05 3.655 23.935C3.09 22.79 2.905 21.58 3.095 20.31C3.165 19.565 3.425 18.895 3.875 18.31C4.285 18.295 4.68 18.35 5.06 18.465C4.53 19.825 4.35 21.23 4.53 22.685ZM6.53 23C6.59 23.525 6.705 24.035 6.875 24.53C6.625 24.52 6.375 24.5 6.125 24.465C5.835 23.91 5.66 23.315 5.595 22.685C5.39 21.245 5.595 19.87 6.185 18.56C6.485 18.56 6.775 18.605 7.06 18.685C6.53 20.075 6.35 21.515 6.53 23ZM14.875 25.5C12.595 25.24 10.325 24.95 8.06 24.625C7.675 23.735 7.51 22.81 7.56 21.84C7.51 20.775 7.715 19.765 8.185 18.81C10.46 19.04 12.73 19.3 15 19.59C14.62 20.565 14.455 21.575 14.5 22.625C14.465 23.6 14.59 24.56 14.875 25.5ZM15 16.875C15.08 16.415 15.11 15.96 15.095 15.5C14.805 15.19 14.49 15.165 14.155 15.435C14.1 15.6 14.055 15.765 14.03 15.935C13.975 16.75 14.005 17.565 14.125 18.375C10.77 18.015 7.415 17.63 4.06 17.215C3.785 16.935 3.63 16.59 3.595 16.185C3.55 15.705 3.55 15.225 3.595 14.75C3.66 14.44 3.765 14.15 3.905 13.875C4.005 13.835 4.11 13.815 4.22 13.81C8.27 14.285 12.325 14.765 16.375 15.25C16.135 16.21 16.065 17.19 16.155 18.185C16.17 18.325 16.2 18.46 16.25 18.59C15.955 18.62 15.665 18.6 15.375 18.53C15.15 18 15.025 17.45 15 16.875ZM16.53 24.06C16.605 24.63 16.74 25.18 16.935 25.715C16.71 25.705 16.485 25.685 16.25 25.655C16.035 25.365 15.88 25.045 15.78 24.685C15.335 22.975 15.45 21.31 16.125 19.685C16.39 19.735 16.665 19.775 16.935 19.81C16.52 21.195 16.385 22.615 16.53 24.06ZM19.435 26C19 25.975 18.56 25.935 18.125 25.875C17.315 23.905 17.29 21.925 18.06 19.935C18.59 19.975 19.115 20.055 19.625 20.185C18.785 22.095 18.725 24.03 19.435 26ZM19.685 19.06C18.92 18.96 18.15 18.875 17.375 18.81C17.005 17.645 17.045 16.5 17.5 15.375C18.275 15.445 19.045 15.55 19.81 15.685C19.44 16.795 19.4 17.92 19.685 19.06ZM19.685 14.56C16.105 14.13 12.52 13.715 8.935 13.31C8.835 12.375 8.785 11.44 8.78 10.5C8.75 10.385 8.675 10.31 8.56 10.28C8.15 10.145 7.89 10.28 7.78 10.685C7.75 11.52 7.75 12.355 7.78 13.185C7.445 13.135 7.11 13.075 6.78 13C6.42 11.87 6.43 10.745 6.81 9.625C11.15 10.105 15.485 10.63 19.81 11.185C19.44 12.295 19.4 13.42 19.685 14.56ZM27.97 26.625C27.75 26.38 27.55 26.12 27.375 25.84C27.105 25.71 26.845 25.72 26.595 25.875C26.405 26.185 26.22 26.5 26.03 26.81C26 25.435 25.99 24.06 26 22.685C26.615 22.625 27.22 22.545 27.81 22.435H28C28.01 23.83 28 25.225 27.97 26.625ZM29 25.25V22.31C29.705 22.325 29.925 22.01 29.655 21.375C29.37 21.245 29.065 21.215 28.75 21.28C27.395 21.44 26.04 21.605 24.685 21.78C24.225 22.085 24.205 22.42 24.625 22.78C24.75 22.81 24.875 22.82 25 22.81V25.75C23.73 25.89 22.46 26.035 21.185 26.185C20.95 26.225 20.775 26.145 20.655 25.935C20.205 25.095 20.01 24.2 20.06 23.25C20.01 22.295 20.205 21.4 20.655 20.56C20.75 20.445 20.865 20.35 21 20.28C24.51 19.87 28.01 19.445 31.5 19H31.935C31.225 20.965 31.285 22.9 32.125 24.81C31.09 25 30.05 25.145 29 25.25ZM21.22 19.185C21.055 19.185 20.93 19.12 20.845 19C20.735 18.755 20.65 18.505 20.595 18.25C20.505 17.525 20.57 16.815 20.78 16.125C20.83 15.99 20.905 15.88 21 15.78C24.68 15.35 28.345 14.9 32 14.435H32.185C31.9 15.575 31.945 16.7 32.31 17.81C28.62 18.295 24.92 18.755 21.22 19.185ZM21.22 14.685C21.055 14.685 20.93 14.62 20.845 14.5C20.735 14.255 20.65 14.005 20.595 13.75C20.505 13.025 20.57 12.315 20.78 11.625C20.83 11.49 20.905 11.38 21 11.28C24.68 10.85 28.345 10.4 32 9.935H32.185C31.9 11.075 31.94 12.2 32.31 13.31C28.62 13.795 24.92 14.255 21.22 14.685Z" fill="#44C5FF"/>
</svg>
