<svg width="128" height="128" viewBox="0 0 128 128" fill="none" xmlns="http://www.w3.org/2000/svg">
<path fill-rule="evenodd" clip-rule="evenodd" d="M113.026 96.4752C112.071 97.4555 111.117 98.4008 110.163 99.3812C110.006 99.5212 109.868 99.5212 109.712 99.3812L97.9996 87.5646C99.7867 86.4268 101.001 84.8162 101.643 82.768C102.216 79.4594 101.643 76.3258 99.995 73.4023C100.949 72.2119 101.799 70.9515 102.528 69.6035C104.749 64.6668 103.968 60.2728 100.203 56.4565C103.292 50.5045 102.042 45.7779 96.438 42.2767L109.92 28.6746C110.076 28.517 110.215 28.517 110.371 28.6746L113.251 31.5805C114.205 31.9657 115.038 31.7906 115.784 31.0204C117.172 24.4906 118.491 17.9434 119.775 11.3787C120.452 9.03285 119.602 7.94748 117.224 8.14005C110.492 9.453 103.777 10.9235 97.1147 12.4815C96.4901 13.1117 96.2992 13.847 96.5595 14.7048C97.5485 15.9302 98.6242 17.0856 99.7694 18.171L88.3871 29.6549C86.0968 28.7096 83.7024 28.2019 81.2038 28.0794C76.9181 19.3089 71.175 18.1885 63.9743 24.7357C56.6695 18.1535 50.9264 19.3089 46.7274 28.1844C44.3503 28.1144 42.06 28.5345 39.8738 29.4273C36.0739 25.6985 32.3261 21.9523 28.5956 18.1535C29.6714 17.0681 30.7472 15.9827 31.8056 14.9149C32.1873 14.0746 32.0832 13.3043 31.4759 12.5691C24.1017 10.6959 16.6581 9.15539 9.12781 8C8.48583 8.50767 8.12146 9.1729 8.01735 10.0132C9.38808 17.0331 10.8282 24.018 12.3377 30.9853C12.9971 31.5981 13.7605 31.7906 14.6628 31.5455C15.7559 30.6527 16.797 29.6899 17.7513 28.6395C17.8901 28.482 18.0462 28.482 18.185 28.6395C22.6269 33.1036 27.034 37.5501 31.4585 42.0316C25.6113 45.5678 24.2752 50.3995 27.4678 56.5266C23.772 60.0102 22.8524 64.1417 24.709 68.9033C25.4898 70.5138 26.4094 72.0368 27.4678 73.4723C26.7391 75.0829 26.1838 76.7459 25.8195 78.4965C25.0907 82.4704 26.3747 85.5515 29.6714 87.7572C25.8368 91.626 22.0196 95.4949 18.1677 99.3637C18.0289 99.5037 17.8727 99.5037 17.7339 99.3637C16.7623 98.3133 15.7212 97.333 14.6454 96.4577C13.7605 96.2126 12.9797 96.3877 12.3204 97.0179C10.8109 103.985 9.37073 110.97 8 117.99C8.0694 118.9 8.50318 119.531 9.33603 119.881C16.4326 118.76 23.5118 117.43 30.5563 115.854C31.3891 115.277 31.6494 114.489 31.3371 113.509C30.3481 112.283 29.2897 111.128 28.1271 110.042C30.9033 107.224 33.6968 104.423 36.525 101.674C38.8154 103.268 41.3139 104.335 44.038 104.913C46.6233 106.331 49.3474 107.294 52.2277 107.819C56.3746 108.607 60.1571 107.819 63.6099 105.473C64.8939 106.471 66.334 107.189 67.9303 107.591C73.2224 108.484 78.2368 107.591 82.9563 104.913C85.8192 104.37 88.4045 103.215 90.7122 101.464C93.6271 104.283 96.4901 107.154 99.3356 110.042C98.1904 111.128 97.1147 112.283 96.1257 113.509C95.9001 114.331 96.0736 115.032 96.6636 115.627C103.344 117.202 110.041 118.603 116.791 119.863C118.543 120.318 119.567 119.636 119.879 117.85C118.508 110.795 117.034 103.758 115.455 96.7553C114.726 96.0375 113.91 95.915 113.008 96.4227L113.026 96.4752ZM19.4864 24.4206C18.5147 23.7029 17.5604 23.7029 16.6061 24.4206C16.0509 24.9633 15.4956 25.541 14.9404 26.0837C14.0208 21.4796 13.1706 16.8755 12.4072 12.254C16.849 13.1643 21.2562 14.1446 25.6807 15.1599C25.0734 15.7902 24.5355 16.4554 24.015 17.1731C23.8588 17.7683 23.8588 18.3635 24.015 18.9412C28.1098 23.0726 32.2046 27.2041 36.2821 31.318C34.4429 33.3662 33.5233 35.7995 33.506 38.5654C28.8212 33.8388 24.1364 29.1297 19.469 24.4031L19.4864 24.4206ZM24.2405 108.869C23.9109 109.517 23.8588 110.165 24.015 110.883C24.5528 111.653 25.1775 112.353 25.8889 113.001C21.4644 113.981 17.0572 114.891 12.6154 115.802C12.546 115.609 12.4592 115.417 12.3898 115.242C13.2574 110.795 14.177 106.366 15.1486 101.955C15.9468 103.022 16.9358 103.758 18.133 104.195C18.6015 104.073 19.0526 103.88 19.469 103.635C23.5638 99.5387 27.624 95.4073 31.6147 91.2584C31.9964 93.044 32.4649 94.8296 33.0548 96.6152C33.3671 97.3855 33.7662 98.0857 34.2694 98.7335L24.2058 108.887L24.2405 108.869ZM47.9073 88.3349C51.1519 91.4685 55.0385 92.6414 59.5151 91.8011C60.3479 91.6435 61.1461 91.4685 61.9616 91.2409C62.2045 94.9697 62.2565 98.6809 62.0657 102.41C58.6302 104.598 54.9865 105.001 51.1172 103.635C49.4515 103.11 47.8205 102.427 46.2416 101.622C45.2005 99.5037 44.8709 97.298 45.2699 95.0397C44.6106 94.0068 43.691 93.6567 42.4938 94.0419C42.0253 94.427 41.6783 94.8996 41.5048 95.4773C41.3313 97.1404 41.418 98.786 41.7303 100.397C37.9825 98.716 35.9351 95.81 35.536 91.6785C35.4666 90.103 35.536 88.545 35.7616 87.0045C35.2584 85.9191 34.4256 85.3589 33.2283 85.3239C29.4979 83.8009 28.4395 81.14 30.0184 77.4112C30.2266 76.6234 30.591 75.9757 31.1289 75.398C33.9571 75.9757 36.8026 75.9757 39.6309 75.398C39.8217 76.9735 40.3075 78.4615 41.0536 79.862C41.8344 80.5973 42.6673 80.7023 43.6042 80.1946C44.0727 79.792 44.2809 79.2668 44.2809 78.6366C41.418 73.0697 42.8234 69.0608 48.4799 66.575C50.2844 65.9448 52.1409 65.4371 53.9975 65.017C55.2815 63.3714 54.8997 62.216 52.887 61.5508C49.1218 62.0409 45.7384 63.4239 42.7193 65.6822C41.0363 67.3102 39.8564 69.2534 39.1797 71.4942C36.4209 72.2644 33.6968 72.2119 30.9901 71.3891C29.4111 69.7611 28.3354 67.8179 27.7801 65.5771C27.4505 62.9863 28.266 60.833 30.2093 59.1174C32.8466 60.798 35.6748 61.4282 38.7113 61.0081C39.6656 59.8702 39.5788 58.8374 38.4857 57.892C35.883 57.8045 33.5233 57.0167 31.4065 55.5462C28.2139 50.3469 29.4632 46.6882 35.1717 44.605C36.1433 45.3402 37.115 46.128 38.0519 46.9508C40.7413 49.0515 43.7777 49.8743 47.1091 49.4191C47.8726 48.4913 47.942 47.5285 47.3347 46.5131C43.5695 46.128 40.4464 44.5175 37.9305 41.7165C36.8026 34.8367 39.7003 31.6156 46.6754 32.0182C47.0224 33.2261 47.6644 34.2064 48.6707 34.9242C50.5446 34.9592 51.256 34.0314 50.7702 32.1232C50.4058 31.4405 50.0762 30.7228 49.7812 30.005C50.614 27.8343 51.9674 26.0662 53.7719 24.6482C54.3098 24.4906 54.8477 24.2981 55.3162 24.088C56.6001 24.1755 57.7973 24.5957 58.8558 25.3309C59.9836 26.2412 61.042 27.2391 62.0657 28.3419C62.2045 32.2108 62.2045 36.0621 62.0657 39.9484C59.3069 41.6115 56.7736 41.3664 54.4313 39.1606C52.2277 38.863 51.4469 39.8084 52.1062 41.9616C55.0212 44.71 58.3526 45.4453 62.1698 44.1848V51.3273C59.0119 50.592 55.9234 50.7846 52.887 51.87C51.1346 52.6052 50.0241 53.8657 49.573 55.6688C49.573 56.8242 50.1629 57.4544 51.3254 57.5594C51.7071 57.4719 52.0715 57.3493 52.4532 57.2093C53.3381 55.8613 54.6048 55.0386 56.2011 54.7585C58.2138 54.5659 60.1918 54.6884 62.1698 55.0911C62.2045 61.4107 62.1698 67.7479 62.0657 74.0675C60.4867 74.9603 58.8211 75.1529 57.086 74.6102C56.2184 74.1026 55.2815 73.6999 54.3098 73.3848C52.7309 73.7524 52.2277 74.6978 52.7656 76.2908C55.5417 78.5666 58.6822 79.2493 62.1698 78.304C62.2392 81.3325 62.1698 84.3435 61.9442 87.3371C58.3352 88.8776 54.8824 88.65 51.551 86.6718C51.0305 86.1467 50.5099 85.6215 49.9894 85.0963C47.4388 84.9212 46.7448 86.0066 47.8899 88.3349H47.9073ZM91.7012 31.458C95.5878 27.2916 99.5785 23.1952 103.639 19.1863C103.968 18.5386 104.038 17.8734 103.864 17.1731C103.361 16.4729 102.806 15.7902 102.216 15.1599C106.502 14.1796 110.787 13.2168 115.038 12.254C115.299 12.324 115.437 12.499 115.489 12.8141C114.622 17.2432 113.702 21.6722 112.713 26.0837C111.915 25.0333 110.926 24.2981 109.729 23.8604C109.26 23.983 108.827 24.1755 108.41 24.4206C103.569 29.2873 98.7457 34.1539 93.9221 39.0381C93.8874 36.4822 93.1587 34.1714 91.7185 32.1232C91.5624 31.8957 91.5624 31.6856 91.7185 31.458H91.7012ZM89.7058 80.3172C89.3935 80.8073 89.3241 81.315 89.4803 81.8752C90.556 84.0985 91.4409 86.4093 92.135 88.7901C92.6034 92.7989 91.3021 96.1076 88.2657 98.716C87.5022 99.2411 86.6867 99.6613 85.8365 99.9414C86.305 98.3308 86.3571 96.6677 85.9407 95.0397C85.4895 93.8318 84.6567 93.4291 83.4074 93.8143C82.9216 93.9893 82.5746 94.3395 82.4184 94.7946C82.6787 97.2104 82.2796 99.5212 81.1865 101.709C77.8898 103.6 74.3502 104.458 70.5677 104.283C68.6938 104.09 67.0281 103.39 65.5879 102.165C65.4838 98.4359 65.4491 94.7246 65.4838 90.9958C68.5723 91.9236 71.6608 92.0287 74.7666 91.3284C76.8487 90.7157 78.5838 89.5778 79.9546 87.8798C80.718 85.4464 79.8852 84.5186 77.4213 85.0788C75.2524 87.5471 72.5283 88.51 69.2316 87.9848C67.965 87.7572 66.7157 87.4946 65.4665 87.197V78.0414C68.7111 78.9692 71.7302 78.479 74.5411 76.6059C75.7036 74.2251 74.9748 73.1747 72.3375 73.4898C70.1513 74.9078 67.8783 75.0829 65.4838 74.05V55.0736C67.6354 54.5659 69.7695 54.4609 71.8863 54.7409C73.3265 55.0386 74.4369 55.8263 75.2177 57.0867C76.7967 57.6294 77.8204 57.1218 78.3062 55.5287C77.5428 53.323 76.0332 51.905 73.7603 51.2923C71.0709 50.6971 68.3814 50.6971 65.692 51.2923C65.4491 48.8239 65.3971 46.3731 65.5879 43.9223C68.6764 45.0251 71.574 44.6925 74.3328 42.9244C74.8881 42.4167 75.3739 41.8741 75.7556 41.2438C76.0853 39.8084 75.5301 39.0031 74.1073 38.793C72.858 39.4057 71.6087 40.0534 70.3421 40.6837C68.607 41.0513 67.0281 40.7187 65.5879 39.6858C65.4491 35.9045 65.4491 32.1057 65.5879 28.3244C67.1322 26.2762 69.0928 24.8583 71.4526 24.0705C73.7776 24.2455 75.5127 25.3659 76.6405 27.4316C77.0396 28.2544 77.456 29.0597 77.8551 29.8825C77.1264 31.0554 76.7967 32.3158 76.8661 33.6813C77.2131 34.364 77.7683 34.6441 78.5318 34.5741C78.9135 34.5391 79.2779 34.4865 79.6422 34.3465C80.1628 33.5937 80.6139 32.771 80.9609 31.8957C87.936 31.3705 90.8336 34.5741 89.7058 41.4889C87.3808 44.3424 84.3964 45.8654 80.7527 46.0755C79.5728 47.1959 79.5728 48.2987 80.7527 49.4191C83.7371 49.6292 86.4612 48.894 88.9424 47.1959C90.0181 46.1805 91.1633 45.2527 92.3605 44.3949C97.8781 46.3731 99.2142 49.9443 96.3513 55.1086C94.2518 56.7541 91.8573 57.6119 89.1679 57.6819C87.9881 58.8023 87.9881 59.9052 89.1679 61.0256C92.0655 61.2707 94.755 60.6405 97.2361 59.1349C99.1968 60.5704 100.082 62.4961 99.8908 64.9469C99.353 67.3978 98.2078 69.516 96.4553 71.3016C93.7312 72.0369 91.0071 72.0369 88.2657 71.3016C87.3461 67.8354 85.2813 65.297 82.0714 63.7215C79.434 62.286 76.6405 61.6033 73.6735 61.7083C72.5977 62.6887 72.5283 63.7215 73.4479 64.8244C76.4497 65.3321 79.2432 66.3824 81.8458 67.9405C84.3444 69.9536 85.1252 72.5095 84.1709 75.6256C83.8412 76.6059 83.5115 77.5512 83.1818 78.5316C83.6677 80.3347 84.7434 80.7723 86.3918 79.862C87.1032 78.5141 87.6237 77.0961 87.9534 75.6256C88.0575 75.398 88.2483 75.2404 88.5086 75.1879C91.2327 75.7656 93.9568 75.7656 96.6809 75.1879C98.069 77.2361 98.5548 79.4594 98.121 81.8752C97.375 83.3107 96.2645 84.3436 94.807 84.9913C94.0956 83.5383 93.4363 82.0328 92.8116 80.5272C91.84 79.1268 90.8163 79.0567 89.7232 80.2997L89.7058 80.3172ZM115.68 115.784C111.169 114.839 106.675 113.876 102.199 112.878C102.875 112.178 103.482 111.425 104.072 110.655C104.229 110.025 104.159 109.43 103.847 108.869C100.429 105.421 96.9932 101.955 93.5577 98.4884C94.9979 96.055 95.744 93.4116 95.7787 90.5582C100.221 94.9347 104.645 99.3637 109.035 103.845C109.555 104.108 110.059 104.178 110.596 104.073C111.429 103.408 112.245 102.707 113.026 101.955C113.997 106.454 114.952 110.953 115.906 115.452C115.836 115.557 115.767 115.679 115.68 115.802V115.784Z" fill="#44C5FF"/>
</svg>
