<svg width="25" height="40" viewBox="0 0 25 40" fill="none" xmlns="http://www.w3.org/2000/svg">
<path fill-rule="evenodd" clip-rule="evenodd" d="M24.1944 -0.235468C22.9709 2.02733 21.6454 4.23436 20.2009 6.37764C18.8414 8.34564 17.482 10.3057 16.1225 12.2737C15.5277 13.1979 15.1029 14.1779 14.848 15.2217C14.2447 20.5759 13.5395 25.9142 12.7238 31.2366C12.3499 33.6109 11.8996 35.9773 11.3643 38.3277C11.0584 38.5827 10.7015 38.7739 10.3022 38.8855C10.1068 38.8536 9.97931 38.7421 9.91984 38.5668C9.94533 34.4236 10.0048 30.2805 10.0898 26.1373C7.74467 31.2206 4.81329 35.9614 1.29563 40.3595C0.921771 40.5905 0.522423 40.6144 0.106082 40.4392C0.0126176 40.3037 0.00412088 40.1523 0.0635982 40.0009C1.92439 36.535 3.62374 33.0054 5.16165 29.404C6.42767 26.1771 7.18388 22.8387 7.41329 19.4047C7.46427 18.5681 7.27735 17.7873 6.861 17.0542C6.24924 16.5443 5.61198 16.5284 4.94923 17.0144C3.54727 18.3211 2.60413 19.8748 2.10282 21.6754C1.84792 22.7511 1.53354 23.8108 1.16818 24.8625C1.1002 25.0537 0.998242 25.229 0.87079 25.3804C0.522423 25.4441 0.335494 25.2927 0.318501 24.9422C-0.548168 20.8388 0.352488 17.118 3.03746 13.7875C5.01721 11.7876 7.47277 10.7359 10.3872 10.6403C11.3813 10.2977 12.3159 9.84355 13.1911 9.28582C16.1735 6.62464 19.0623 3.89175 21.8578 1.07919C22.5545 0.545357 23.2343 -0.00440776 23.897 -0.554173H24.2369C24.2539 -0.442626 24.2369 -0.339047 24.1944 -0.235468Z" fill="#44C5FF"/>
<path fill-rule="evenodd" clip-rule="evenodd" d="M12.5113 6.61667C12.2734 8.21019 11.3133 9.17427 9.62245 9.52485C9.16363 9.58859 8.7133 9.55672 8.26297 9.44517C7.49826 9.10256 6.83551 8.64044 6.26623 8.05084C5.73943 7.27002 5.5695 6.42545 5.75643 5.50121C6.18976 4.23436 7.08192 3.41369 8.4329 3.03125C10.9394 3.06312 12.2989 4.25826 12.5113 6.61667Z" fill="#44C5FF"/>
</svg>
