<svg width="36" height="36" viewBox="0 0 36 36" fill="none" xmlns="http://www.w3.org/2000/svg">
<path fill-rule="evenodd" clip-rule="evenodd" d="M33.845 16.9551C32.97 13.7401 30.91 11.7851 27.66 11.0851C27.67 9.94506 27.66 8.80506 27.625 7.66006C27.595 7.54006 27.545 7.42506 27.485 7.31506C25.775 5.60006 24.065 3.89006 22.35 2.18006C22.26 2.13006 22.165 2.08506 22.07 2.04006C16.81 2.00506 11.545 1.99006 6.28499 2.00506C6.12499 2.10506 5.99499 2.24506 5.89999 2.42506C5.86499 3.56506 5.85499 4.70506 5.86499 5.84506C4.72499 5.83506 3.57999 5.84506 2.43999 5.88006C2.26499 5.96006 2.13999 6.09006 2.05499 6.26506C1.98999 15.4201 2.00999 24.5751 2.12499 33.7201C2.20999 33.8301 2.31499 33.9101 2.43999 33.9651C9.84499 34.0101 17.25 34.0101 24.655 33.9651C24.83 33.8851 24.96 33.7551 25.04 33.5801C25.075 32.4401 25.09 31.3001 25.075 30.1551C25.8 30.1701 26.52 30.1551 27.24 30.1201C27.465 30.0201 27.59 29.8451 27.625 29.6001C27.65 28.4801 27.67 27.3651 27.695 26.2451C28.48 26.0601 29.235 25.7951 29.965 25.4401C33.14 23.4851 34.43 20.6551 33.845 16.9551ZM22.49 4.31006C23.43 5.21506 24.365 6.13506 25.285 7.07006C24.355 7.10506 23.425 7.11506 22.49 7.10506V4.31006ZM23.75 32.6701H3.34999V7.17506H5.86499C5.85499 14.7201 5.86499 22.2651 5.89999 29.8101C5.98499 29.9651 6.11499 30.0701 6.28499 30.1201C12.105 30.1551 17.925 30.1701 23.75 30.1551V32.6701ZM26.265 28.8301H7.18999V3.33006H21.165C21.13 4.94006 21.165 6.55006 21.27 8.15006C21.355 8.26006 21.46 8.34006 21.585 8.39506C23.145 8.43006 24.705 8.44006 26.265 8.43006V10.9451C22.845 11.1251 20.455 12.7751 19.105 15.9051C17.97 19.6701 18.955 22.7351 22.07 25.0901C23.35 25.9101 24.745 26.3201 26.265 26.3151V28.8301ZM29.545 24.1151C26.965 25.4501 24.52 25.2401 22.21 23.4851C20.265 21.6751 19.6 19.4751 20.22 16.8851C21.165 14.2051 23.04 12.6701 25.845 12.2751C29.15 12.3001 31.35 13.8601 32.445 16.9551C33.07 20.0001 32.105 22.3851 29.545 24.1151Z" fill="#44C5FF"/>
<path fill-rule="evenodd" clip-rule="evenodd" d="M18.545 6.96506C18.46 7.06006 18.36 7.12006 18.23 7.14006C15.53 7.18506 12.825 7.18506 10.125 7.14006C9.72999 6.94006 9.59999 6.62506 9.73999 6.19506C9.83499 6.06506 9.93999 5.95006 10.055 5.84506C12.805 5.83506 15.55 5.84506 18.3 5.88006C18.715 6.16506 18.795 6.52506 18.545 6.96506Z" fill="#44C5FF"/>
<path fill-rule="evenodd" clip-rule="evenodd" d="M18.545 10.8051C18.445 10.8751 18.34 10.9301 18.23 10.9801C15.53 11.0251 12.825 11.0251 10.125 10.9801C9.70499 10.7201 9.59999 10.3601 9.80999 9.90006C9.88999 9.82006 9.97499 9.75006 10.055 9.69006C12.805 9.67506 15.55 9.69006 18.3 9.72506C18.715 10.0101 18.795 10.3701 18.545 10.8051Z" fill="#44C5FF"/>
<path fill-rule="evenodd" clip-rule="evenodd" d="M14.39 14.8251C12.99 14.8701 11.595 14.8701 10.195 14.8251C9.70999 14.6001 9.57999 14.2401 9.80999 13.7401C9.88999 13.6601 9.97499 13.5901 10.055 13.5301C11.545 13.5201 13.035 13.5301 14.525 13.5651C15.025 14.0501 14.98 14.4701 14.39 14.8251Z" fill="#44C5FF"/>
<path fill-rule="evenodd" clip-rule="evenodd" d="M29.86 17.0951C28.475 18.5051 27.065 19.8901 25.635 21.2501C25.37 21.3101 25.115 21.2851 24.865 21.1801C24.08 20.4401 23.35 19.6601 22.665 18.8401C22.635 18.1751 22.95 17.9051 23.61 18.0351C24.2 18.5601 24.77 19.1051 25.32 19.6801C26.56 18.4301 27.805 17.1951 29.06 15.9751C29.915 15.9351 30.185 16.3101 29.86 17.0951Z" fill="#44C5FF"/>
<path fill-rule="evenodd" clip-rule="evenodd" d="M14.56 18.4201C13.71 19.2701 12.86 20.1201 12.01 20.9701C11.765 21.0751 11.51 21.1001 11.245 21.0401C10.695 20.5851 10.195 20.0851 9.73999 19.5401C9.62499 18.7201 9.95999 18.4251 10.755 18.6651C11.025 18.9351 11.29 19.2001 11.56 19.4701C12.22 18.8051 12.885 18.1401 13.55 17.4801C13.695 17.4201 13.835 17.3601 13.97 17.3051C14.625 17.4251 14.82 17.8001 14.56 18.4201Z" fill="#44C5FF"/>
<path fill-rule="evenodd" clip-rule="evenodd" d="M14.63 23.3801C13.785 24.3001 12.91 25.1951 12.01 26.0701C11.71 26.3051 11.405 26.3051 11.105 26.0701C10.675 25.6401 10.245 25.2101 9.80999 24.7801C9.54499 24.0151 9.80999 23.6501 10.615 23.6951C10.95 23.9601 11.265 24.2501 11.56 24.5701C12.26 23.8551 12.97 23.1551 13.69 22.4701C14.41 22.3651 14.725 22.6701 14.63 23.3801Z" fill="#44C5FF"/>
</svg>
