

<svg width="128" height="128" viewBox="0 0 128 128" fill="none" xmlns="http://www.w3.org/2000/svg">
<path fill-rule="evenodd" clip-rule="evenodd" d="M120.889 51.3244V19.7689C119.111 15.2 115.893 13.7244 111.218 15.3244C109.191 11.2 106.009 9.93775 101.671 11.5555C100.889 9.29775 99.3778 7.8222 97.1022 7.11108H93.5466C91.9822 7.71553 90.6489 8.69331 89.5466 9.99108C89.0666 9.68886 88.5333 9.4222 88 9.22664C84.4978 8.31997 81.8311 9.38664 80 12.4444C73.5644 12.6933 67.1111 12.7466 60.6577 12.5511C57.5644 10.6666 54.4533 8.85331 51.3244 7.11108H19.7689C15.2 8.88886 13.7244 12.1066 15.3244 16.7822C11.2 18.7911 9.93775 21.9911 11.5555 26.3289C9.29775 27.1111 7.8222 28.6222 7.11108 30.88V34.4355C7.71553 36.0178 8.69331 37.3511 9.99108 38.4355C9.74219 38.9689 9.47553 39.4844 9.22664 40C8.31997 43.4844 9.40442 46.1511 12.4444 48C12.7111 54.4355 12.7466 60.8889 12.5511 67.3244C10.6666 70.4178 8.85331 73.5289 7.11108 76.6578V108.213C8.88886 112.8 12.1066 114.276 16.7822 112.658C18.7911 116.8 21.9911 118.062 26.3289 116.444C27.1111 118.702 28.6222 120.178 30.88 120.889H34.4355C36.0178 120.267 37.3511 119.307 38.4355 117.991C38.9689 118.258 39.4844 118.524 40 118.773C43.5022 119.68 46.1689 118.596 48 115.556C54.4355 115.289 60.8889 115.253 67.3244 115.449C70.4355 117.316 73.5466 119.129 76.6578 120.889H108.213C112.8 119.111 114.276 115.893 112.658 111.218C116.8 109.191 118.062 106.009 116.444 101.671C118.702 100.889 120.178 99.36 120.889 97.1022V93.5466C120.267 91.9822 119.307 90.6489 117.991 89.5466C118.258 89.0311 118.524 88.5155 118.773 88C119.68 84.4978 118.596 81.8311 115.556 80C115.289 73.5466 115.253 67.1111 115.449 60.6577C117.316 57.5644 119.147 54.4533 120.889 51.3244ZM11.4489 31.3244C11.8578 30.7378 12.4089 30.3289 13.1022 30.1155C17.6355 30.0266 22.1511 29.9555 26.6666 29.8844C27.9111 29.3689 28.32 28.4444 27.8933 27.1111C27.6977 26.6311 27.3778 26.2933 26.88 26.1155C23.5555 26.0266 20.2133 25.9555 16.8889 25.8844C14.8266 24.9778 14.3466 23.5378 15.4489 21.5466C15.9466 21.12 16.4978 20.7822 17.1022 20.5511C21.6355 20.48 26.1511 20.4089 30.6666 20.3378C31.6978 19.68 32.0355 18.7555 31.6622 17.5466C31.4133 17.0311 31.0044 16.7111 30.4355 16.5511C26.9333 16.5511 23.4666 16.3911 20 16.1066C18.1155 14.2578 18.2755 12.5866 20.4444 11.1111C30.4355 11.0755 40.4444 11.1111 50.4355 11.2178C52.9244 12.64 55.3778 14.1333 57.7778 15.6622C58.4711 16.0889 59.2178 16.3733 60 16.5511C66.3644 16.6578 72.7466 16.6933 79.1111 16.6578C79.1466 22.1511 79.1111 27.6266 79.0044 33.1022C77.6178 31.9466 76.1778 30.88 74.6666 29.8844C70.2044 28.4977 67.2711 30.0266 65.8844 34.4355C65.7422 35.4133 65.7777 36.3733 65.9911 37.3333C63.5555 37.2978 61.1022 37.3333 58.6666 37.44C58.0622 37.6177 57.4578 37.8489 56.8889 38.1155C50.1511 44.6933 43.4133 51.2889 36.6578 57.8844C35.2355 58.4533 34.1511 58.0444 33.44 56.6578C33.2977 56.2133 33.2977 55.7689 33.44 55.3244C35.2889 52.8178 37.2089 50.3822 39.2178 48C39.6444 46.9689 39.4666 46.0444 38.6666 45.2266C30.7555 44.9244 22.8266 44.7822 14.88 44.7822C13.0311 43.8755 12.5511 42.5066 13.44 40.6578C13.7778 40.2489 14.1866 39.9111 14.6666 39.6622C18.5244 39.5911 22.3644 39.52 26.2222 39.4489C27.8933 39.0933 28.4444 38.0978 27.8933 36.4444C27.6266 36.1778 27.3778 35.9289 27.1111 35.6622C22.7378 35.5911 18.3644 35.52 13.9911 35.4489C11.5378 35.0755 10.6844 33.7066 11.4489 31.3244ZM69.1022 41.44C74.9333 47.4133 80.7466 53.3689 86.56 59.3244C86.7022 62.5955 86.7022 65.8489 86.56 69.1022C80.5866 74.9155 74.6311 80.7466 68.6577 86.56C65.4044 86.7022 62.1511 86.7022 58.88 86.56C53.0666 80.5866 47.2533 74.6311 41.44 68.6577C41.2977 65.4044 41.2977 62.1511 41.44 58.88C47.4489 53.0666 53.4222 47.2177 59.3244 41.3333C62.5955 41.2977 65.8489 41.3333 69.1022 41.44ZM45.2266 89.3333C44.9244 97.2444 44.7822 105.173 44.7822 113.102C43.1822 115.644 41.4755 115.716 39.6622 113.333C39.5911 109.476 39.52 105.636 39.4489 101.778C39.0933 100.107 38.0978 99.5378 36.4444 100.107L35.6622 100.889C35.5911 105.262 35.52 109.636 35.4489 113.991C35.1289 116.142 33.9022 117.067 31.7689 116.782C31.1822 116.498 30.7022 116.089 30.3289 115.556C30.0444 110.827 29.9022 106.08 29.8844 101.333C29.3689 100.089 28.4444 99.68 27.1111 100.107C26.6311 100.302 26.2933 100.622 26.1155 101.102C26.0444 104.444 25.9555 107.769 25.8844 111.111C24.9778 113.156 23.5378 113.653 21.5466 112.551C21.12 112.053 20.8 111.502 20.5511 110.88C20.48 106.364 20.4089 101.849 20.3378 97.3333C19.6978 96.3022 18.7555 95.9644 17.5466 96.3377C17.0489 96.5689 16.7111 96.9777 16.5511 97.5466C16.5511 101.049 16.3911 104.533 16.1066 108C14.2933 109.884 12.6755 109.742 11.2178 107.556C11.0755 97.5466 11.0755 87.5555 11.2178 77.5466C12.64 75.0755 14.1333 72.6222 15.6622 70.2222C16.0889 69.5289 16.3911 68.7822 16.5511 68C16.6578 61.6355 16.7111 55.2533 16.6578 48.8889C22.1511 48.8533 27.6266 48.8889 33.1022 48.9955C31.52 50.5778 30.3111 52.3911 29.44 54.4355C29.0666 60.0889 31.6978 62.6133 37.3333 61.9911C37.2978 64.4444 37.3333 66.88 37.44 69.3333C37.6177 69.9377 37.8489 70.5244 38.1155 71.1111C44.7111 77.8489 51.2889 84.5866 57.8844 91.3244C58.4533 92.7644 58.0444 93.8311 56.6578 94.56C56.2133 94.7022 55.7689 94.7022 55.3244 94.56C52.8178 92.7111 50.3822 90.7911 48 88.7822C46.9511 88.2666 46.0266 88.4622 45.2266 89.3333ZM116.551 96.6578C116.142 97.2622 115.591 97.6711 114.88 97.8844C110.364 97.9555 105.849 98.0266 101.333 98.1155C100.089 98.6311 99.68 99.5555 100.107 100.889C100.302 101.369 100.622 101.707 101.102 101.884C104.444 101.956 107.769 102.027 111.111 102.116C113.173 103.022 113.653 104.462 112.551 106.436C112.053 106.862 111.502 107.2 110.88 107.449C106.364 107.52 101.849 107.591 97.3333 107.662C96.3022 108.302 95.9644 109.227 96.3377 110.436C96.5866 110.951 96.9777 111.289 97.5466 111.449C101.049 111.449 104.533 111.591 108 111.893C109.778 113.44 109.778 115.004 108 116.551C97.8666 116.924 87.7155 116.996 77.5466 116.782C75.0755 115.342 72.6222 113.867 70.2222 112.338C69.5289 111.911 68.7822 111.609 68 111.449C61.6355 111.324 55.2533 111.289 48.8889 111.324C48.8533 105.849 48.8889 100.373 48.9955 94.88C50.3822 96.0533 51.8222 97.12 53.3333 98.1155C57.7955 99.4844 60.7289 97.9733 62.1155 93.5466C62.2578 92.5866 62.2044 91.6266 61.9911 90.6666C64.4444 90.7022 66.8977 90.6666 69.3333 90.56C70.2222 90.3466 71.04 89.9911 71.7689 89.44C78.3644 82.6666 85.1022 76.1066 92 69.7778C93.8489 69.8844 94.7022 70.8444 94.56 72.6578C92.7111 75.1644 90.7911 77.6178 88.7822 80C88.2666 81.3689 88.6755 82.3644 89.9911 83.0044C97.7066 83.0755 105.404 83.1466 113.102 83.2178C114.969 84.1244 115.449 85.4933 114.56 87.3244C114.204 87.7511 113.813 88.0889 113.333 88.3377C109.476 88.4089 105.636 88.48 101.778 88.5511C100.107 88.9066 99.5555 89.9022 100.107 91.5555C100.373 91.8044 100.622 92.0711 100.889 92.3377C105.262 92.4089 109.636 92.48 113.991 92.5511C116.462 92.9244 117.316 94.2933 116.551 96.6578ZM112.338 57.7778C111.911 58.4711 111.609 59.2 111.449 60C111.324 66.3644 111.289 72.7289 111.324 79.1111C105.849 79.1466 100.373 79.1111 94.88 79.0044C96.2133 77.5289 97.3511 75.9289 98.3289 74.2222C99.2889 69.3689 97.3155 66.56 92.4444 65.7778C91.8578 65.9378 91.2711 66.0266 90.6666 65.9911C90.7022 63.5555 90.6666 61.1022 90.56 58.6666C90.3466 57.76 89.9911 56.96 89.44 56.2133C82.9155 49.7778 76.48 43.2533 70.1155 36.6578C69.5466 34.4889 70.4 33.4044 72.6578 33.44C75.1822 35.2889 77.6178 37.2089 80 39.2178C80.8355 39.4133 81.6533 39.3244 82.4355 39.0044C82.6489 38.6844 82.8444 38.3466 83.0044 37.9911C83.0755 30.2933 83.1466 22.5955 83.2178 14.88C84.5689 12.5511 86.2044 12.3378 88.1066 14.2222C88.3378 18.5066 88.5689 22.8089 88.7822 27.1111C89.9555 28.3022 91.1466 28.3022 92.3377 27.1111C92.4089 22.7378 92.48 18.3644 92.5511 13.9911C92.64 12.64 93.2622 11.68 94.4355 11.1111C96.16 10.8444 97.3155 11.5022 97.8844 13.1022C97.9555 17.6355 98.0444 22.1511 98.1155 26.6666C98.6311 27.9111 99.5555 28.32 100.889 27.8933C101.369 27.6977 101.707 27.36 101.884 26.88C101.956 23.5555 102.044 20.2133 102.116 16.8889C103.022 14.8266 104.462 14.3466 106.436 15.4489C106.88 15.9466 107.2 16.4978 107.449 17.1022C107.52 21.6355 107.591 26.1511 107.662 30.6666C108.302 31.6978 109.227 32.0355 110.436 31.6622C110.951 31.4133 111.289 31.0044 111.449 30.4355C111.449 26.9333 111.591 23.4666 111.893 20C113.707 18.1155 115.324 18.2578 116.782 20.4444C116.924 30.4355 116.924 40.4444 116.782 50.4355C115.36 52.9244 113.867 55.36 112.338 57.7778Z" fill="#44C5FF"/>
</svg>
