
<svg width="128" height="128" viewBox="0 0 128 128" fill="none" xmlns="http://www.w3.org/2000/svg">
<path fill-rule="evenodd" clip-rule="evenodd" d="M104.231 12.729C103.502 9.86673 101.707 8.07117 98.8444 7.36006C92.3022 6.86228 89.2978 9.86673 89.7955 16.4089C90.0089 17.5112 90.5067 18.4534 91.2711 19.2712C89.9378 21.209 88.6044 23.1645 87.2711 25.1023C87.0222 25.4223 86.72 25.6534 86.3467 25.7956C83.4844 25.049 80.96 25.6534 78.7911 27.6267C73.8311 24.8001 68.8533 21.9734 63.8933 19.1467C64.1067 17.2445 64.0355 15.3245 63.6622 13.4223C61.6355 8.62228 58.0089 6.56006 52.7822 7.23562C49.7422 8.01784 47.5733 9.84895 46.2578 12.729C44.5511 18.2223 46.1867 22.3467 51.1822 25.1023C49.7067 31.9645 48.3378 38.8445 47.0578 45.7245C46.0978 45.7067 45.1733 45.9023 44.3022 46.3112C43.4311 46.7912 42.6311 47.3601 41.9022 48.0178C38.8622 46.5601 35.8578 45.0845 32.8533 43.5556C32.8533 41.7067 32.8178 39.8401 32.7289 37.9378C31.2355 32.3556 27.6089 29.4578 21.8489 29.2267C16.5155 29.4045 12.9778 32.0001 11.2 37.0312C9.8311 43.0401 11.8578 47.5023 17.2622 50.4356C22.6311 52.3378 27.1822 51.1645 30.8978 46.8801C33.9022 48.4267 36.9067 49.9556 39.9467 51.4667C39.9822 52.9067 40.16 54.3467 40.5155 55.8223C41.3333 57.8312 42.7378 59.2534 44.7644 60.0534C48.4622 61.2089 51.4844 60.2667 53.8133 57.1912C55.9289 52.7823 55.0222 49.1912 51.0578 46.4178C52.1955 39.4667 53.5289 32.5689 55.0755 25.6889C57.76 25.5823 60.0178 24.5512 61.8311 22.5956C66.7378 25.4045 71.6622 28.1956 76.6044 30.9512C76.8 32.1956 76.9067 33.4578 76.96 34.7378C77.6889 37.6001 79.4844 39.3956 82.3467 40.1245C86.9155 40.8712 89.9378 39.0756 91.3955 34.7378C91.9111 32.3023 91.4133 30.1334 89.9022 28.1956C91.2355 26.2578 92.5689 24.3023 93.92 22.3645C94.1511 22.0445 94.4533 21.8134 94.8267 21.6712C96.16 21.9201 97.4933 21.9556 98.8444 21.7956C103.111 20.2667 104.907 17.2445 104.231 12.729ZM28.8355 41.8312C27.4489 46.0978 24.4978 47.8934 20.0178 47.2178C15.9111 45.7067 14.1867 42.7556 14.8622 38.4001C15.9644 35.129 18.2222 33.2801 21.6178 32.9067C26.9511 33.529 29.3511 36.4978 28.8355 41.8312ZM50.3822 55.129C48.9422 56.6223 47.3067 56.8889 45.4578 55.9289C43.9644 54.4889 43.6978 52.8534 44.64 51.0045C45.1378 50.4001 45.7067 49.9378 46.3644 49.6356C50.3289 49.5645 51.6622 51.4134 50.3822 55.129ZM56.2133 21.5645C51.52 21.9023 49.3511 19.7334 49.6889 15.0223C50.3822 13.1556 51.6444 11.8578 53.4755 11.129C56.6933 10.7023 58.88 12.0001 60 15.0223C60.5333 18.2578 59.2889 20.4445 56.2133 21.5645ZM87.04 34.969C85.6 36.4623 83.9644 36.729 82.1155 35.769C80.6222 34.329 80.3555 32.6934 81.3155 30.8445C81.7955 30.2401 82.3644 29.7778 83.0222 29.4578C86.9867 29.4045 88.32 31.2356 87.04 34.969ZM99.8755 16.6401C98.4355 18.1156 96.8 18.3823 94.9511 17.4401C93.4578 16.0001 93.1911 14.3645 94.1333 12.5156C94.6311 11.9112 95.2 11.449 95.8578 11.129C99.8222 11.0756 101.156 12.9067 99.8755 16.6401Z" fill="#44C5FF"/>
<path fill-rule="evenodd" clip-rule="evenodd" d="M120.729 33.8134C120.604 33.4045 120.338 33.1378 119.911 33.0134C119.307 32.9067 118.702 32.8712 118.08 32.9067C115.396 35.1823 112.711 37.5112 110.062 39.8934C103.929 44.2845 97.0489 46.2756 89.44 45.849C86.9333 46.169 84.48 46.7734 82.1155 47.6801C71.9644 51.7867 65.9733 59.2356 64.1244 70.0267C63.2178 75.2712 64.4089 79.9823 67.68 84.1067C65.7244 86.4356 63.7156 88.6934 61.6 90.8801C60.0178 90.1334 58.4533 89.369 56.9067 88.5867C56.5333 84.5156 55.3422 80.6934 53.3511 77.1201C48.7467 70.0623 42.2933 65.7601 33.9911 64.1778C27.3067 64.6223 21.4222 62.7201 16.3555 58.4534C14.3644 56.1601 12.3733 53.8667 10.3822 51.5734C9.40443 51.0934 8.46221 51.1289 7.51999 51.6978C7.14666 57.8489 7.07555 64.0356 7.28888 70.2578C7.9111 76.1423 9.59999 81.7245 12.3378 86.9689C15.9644 94.1156 21.5822 98.969 29.1733 101.529C37.2978 103.947 44.7111 102.613 51.4133 97.5112C53.6711 98.9689 55.9644 100.391 58.2755 101.76C58.5067 102.613 58.5778 103.485 58.5067 104.391C55.8933 104.302 53.2978 104.498 50.72 104.96C46.3644 105.956 42.1511 107.413 38.1155 109.316C35.68 109.671 33.2444 109.973 30.7911 110.24C26.1867 111.467 22.6311 114.116 20.1244 118.133C19.9822 118.756 19.9822 119.36 20.1244 119.965C20.2489 120.391 20.5155 120.658 20.9244 120.782C49.6533 120.925 78.3644 120.925 107.093 120.782C107.502 120.658 107.769 120.391 107.893 119.965C108.036 119.36 108.036 118.756 107.893 118.133C105.387 114.116 101.831 111.467 97.2267 110.24C94.7911 109.973 92.3378 109.671 89.9022 109.316C87.6622 108.462 85.44 107.556 83.2533 106.56C78.8089 105.031 74.2222 104.302 69.5111 104.391C69.4755 102.791 69.5111 101.173 69.6178 99.5734C72.16 96.3201 74.72 93.0667 77.2978 89.849C81.9555 89.7601 86.6133 89.6889 91.2711 89.6178C92.6578 89.4756 94.0444 89.2445 95.3955 88.9245C109.938 84.6934 118.382 75.1112 120.729 60.1601C120.871 51.3778 120.871 42.5956 120.729 33.8134ZM29.1733 97.4045C23.4311 95.1645 19.1111 91.3067 16.2311 85.8312C12.16 78.1689 10.3644 69.9912 10.8444 61.3156C12.3378 64.1245 13.8133 66.9512 15.3244 69.7956C23.8222 82.7734 35.8578 90.0623 51.4133 91.6801C45.2978 98.5601 37.9022 100.48 29.1733 97.4045ZM18.9867 68.1956C18.1155 66.6845 17.3155 65.1556 16.5867 63.6089C19.7689 65.7601 23.2711 67.1112 27.1111 67.6089C36.6933 67.2712 44.2133 70.969 49.6889 78.7201C51.3778 81.4756 52.4089 84.4445 52.7822 87.6623C38.3111 86.6312 27.04 80.1423 18.9867 68.1956ZM68.2489 69.1023C70.6133 59.7867 76.3911 53.6356 85.5467 50.6667C86.9867 50.2578 88.4267 49.9556 89.9022 49.7423C96.6578 50.0267 102.987 48.5867 108.924 45.3867C110.009 44.7645 111.004 44.0356 111.893 43.2178C110.24 47.5023 107.911 51.4667 104.907 55.129C102.276 57.8312 99.2533 60.0178 95.8578 61.6534C92.6755 62.7912 89.4755 63.8578 86.24 64.8712C78.4355 68.4623 73.6 74.4534 71.68 82.8445C68.1244 78.8978 66.9867 74.3289 68.2489 69.1023ZM69.9733 108.178C74.2222 108.231 78.3467 108.996 82.3467 110.471C84.32 111.307 86.3111 112.142 88.3022 112.978C91.04 113.422 93.7955 113.813 96.5511 114.133C98.5422 114.702 100.302 115.698 101.813 117.102C76.6044 117.262 51.4133 117.262 26.2044 117.102C27.7155 115.698 29.4755 114.702 31.4667 114.133C33.9022 113.778 36.3555 113.476 38.8089 113.209C42.0089 112 45.2089 110.773 48.4267 109.547C51.6089 108.693 54.8267 108.196 58.0444 108.053C62.0267 108.018 65.9911 108.053 69.9733 108.178ZM65.9555 97.9734C65.8489 100.107 65.7955 102.258 65.8489 104.391H62.1689C62.2755 102.685 62.1511 101.013 61.8311 99.3423C59.2533 97.7423 56.6933 96.089 54.1511 94.4178C54.7378 93.7601 55.2355 93.0312 55.6444 92.249C57.4933 93.2267 59.3778 94.1867 61.2622 95.1112C61.8667 95.2712 62.4889 95.2712 63.0933 95.1112C65.5111 92.6578 67.7867 90.0978 69.9733 87.4312C70.7911 88.1067 71.5555 88.8712 72.2667 89.7245C70.2044 92.5156 68.1067 95.2534 65.9555 97.9734ZM117.049 56.2667C116.444 69.0845 110.382 78.2223 98.8444 83.6623C95.2533 85.1556 91.5022 85.9201 87.6089 85.9378C83.4844 86.0623 79.36 86.0978 75.2355 86.0623C76.4089 77.209 81.1555 71.129 89.44 67.8401C98.9689 65.9378 106.329 60.9245 111.556 52.8356C113.476 49.4578 115.271 46.0267 116.942 42.5245C117.209 47.0756 117.244 51.6445 117.049 56.2667Z" fill="#44C5FF"/>
</svg>
