

<svg width="128" height="128" viewBox="0 0 128 128" fill="none" xmlns="http://www.w3.org/2000/svg">
<path fill-rule="evenodd" clip-rule="evenodd" d="M115.769 61.8844C114.08 61.7778 112.373 61.7422 110.667 61.7778C110.809 58.1866 109.067 56.48 105.44 56.6755C101.831 56.4622 100.089 58.1689 100.213 61.7778H91.3244C91.7333 59.0933 90.6133 57.3866 88 56.6755C87.8222 40.4444 87.6978 24.2311 87.6622 7.99997C87.52 7.59108 87.2533 7.28886 86.88 7.11108H8C7.62667 7.3422 7.32445 7.62664 7.11111 7.99997V120C7.32445 120.373 7.62667 120.676 8 120.889H116C118.347 120.089 119.982 118.542 120.889 116.231V66.4533C120 64.0355 118.293 62.5244 115.769 61.8844ZM104.213 60.4444H106.88V68H104C103.929 65.4578 104 62.9511 104.213 60.4444ZM91.3244 65.5644H100.213C99.9467 70.9333 102.453 72.9778 107.769 71.6622C109.191 71.3422 110.116 70.5066 110.56 69.12C110.667 67.9289 110.702 66.7378 110.667 65.5644C112.142 65.5289 113.636 65.5644 115.111 65.6711C115.787 65.9022 116.338 66.3111 116.782 66.8978C117.102 69.3866 117.209 71.9111 117.102 74.4533H56C55.9644 72.1422 56 69.8489 56.1067 67.5555C56.48 66.6311 57.12 65.9555 57.9911 65.5644H61.5467C61.5111 66.7378 61.5467 67.9289 61.6711 69.12C62.6667 71.2711 64.3733 72.16 66.7733 71.7866C70.9333 71.7866 72.6756 69.7244 72 65.5644H80.8889C80.2133 69.7244 81.9556 71.8044 86.1156 71.7866C90.2756 71.7866 92.0178 69.7244 91.3244 65.5644ZM65.3333 68V60.4444C66.2756 60.3733 67.2 60.4444 68.1067 60.6755C68.2133 63.1111 68.2667 65.5644 68.2133 68H65.3333ZM84.6578 60.4444H87.5556V68H84.6578V60.4444ZM52.3378 115.556C52.4267 116.142 52.6222 116.711 52.8889 117.227C38.88 117.333 24.8889 117.369 10.88 117.333V10.6666H84V56.8889C82.4889 57.1733 81.4933 58.0622 80.9956 59.5555C80.8889 60.3022 80.8533 61.0311 80.8889 61.7778H72C72.1422 58.1689 70.4 56.48 66.7733 56.6755C63.1467 56.48 61.4044 58.1866 61.5467 61.7778C58.3289 61.1911 55.6267 62.08 53.44 64.4444C52.8533 65.2444 52.48 66.1333 52.3378 67.1111C52.1778 83.2533 52.1778 99.4133 52.3378 115.556ZM116.996 115.556C116.356 116.569 115.431 117.12 114.222 117.227C95.8578 117.369 77.4756 117.369 59.1111 117.227C57.6533 117.156 56.6578 116.444 56.1067 115.111C56 102.827 55.9644 90.5244 56 78.2222H117.102C117.156 90.6666 117.102 103.111 116.996 115.556Z" fill="#44C5FF"/>
<path fill-rule="evenodd" clip-rule="evenodd" d="M45.44 25.7778C44.3378 26.6666 43.3067 27.6266 42.3289 28.6755C42.2578 32.3733 42.1867 36.0711 42.1156 39.7866C42.0267 39.9822 41.92 40.1777 41.7778 40.3377C37.9022 40.5866 34.0267 40.7111 30.1156 40.6755C26.2044 40.7111 22.3111 40.5866 18.4356 40.3377C18.3111 40.1777 18.1867 39.9822 18.1156 39.7866C17.9556 32.8177 17.9556 25.8489 18.1156 18.8978C18.2578 18.4889 18.5244 18.1866 18.88 18.0089C26.3644 17.9733 33.8489 18.0089 41.3333 18.1155C41.5289 18.2044 41.7244 18.3111 41.8844 18.4533C42.3644 19.3955 42.3111 20.32 41.7778 21.2266C41.4222 21.4222 41.0489 21.5644 40.6578 21.6711C34.3644 21.7778 28.0711 21.8133 21.7778 21.7778V37.12H38.4356C38.4889 35.4844 38.4356 33.8489 38.3289 32.2311C37.3333 32.9955 36.4089 33.8489 35.5556 34.7733C34.7911 35.3955 33.9733 35.4666 33.1022 35.0044C31.5911 33.4755 30.08 31.9644 28.5511 30.4533C27.9289 28.1955 28.7822 27.2711 31.1111 27.6622C32.1067 28.7111 33.1556 29.7066 34.2222 30.6666C37.2089 28.0889 40.1778 25.4578 43.1111 22.7733C45.5467 22.4355 46.3289 23.4311 45.44 25.7778Z" fill="#44C5FF"/>
<path fill-rule="evenodd" clip-rule="evenodd" d="M78.2222 21.44C77.92 21.5289 77.6356 21.6 77.3333 21.6711C69.5467 21.8133 61.7778 21.8133 53.9911 21.6711C52.5867 21.3866 52.0178 20.5333 52.3378 19.1111C52.5511 18.7022 52.8178 18.3466 53.1022 18.0089C61.4756 17.9733 69.8489 18.0089 78.2222 18.1155C79.4133 19.2178 79.4133 20.3378 78.2222 21.44Z" fill="#44C5FF"/>
<path fill-rule="evenodd" clip-rule="evenodd" d="M78.2222 31.0044C69.8489 31.1466 61.4756 31.1466 53.1022 31.0044C51.9289 29.8489 51.9289 28.7111 53.1022 27.5555C61.4756 27.52 69.8489 27.5555 78.2222 27.6622C79.4133 28.7822 79.4133 29.8844 78.2222 31.0044Z" fill="#44C5FF"/>
<path fill-rule="evenodd" clip-rule="evenodd" d="M45.44 60.4444C44.3378 61.3333 43.3067 62.2933 42.3289 63.3422C42.2578 67.04 42.1867 70.7378 42.1156 74.4533C42.0267 74.6489 41.92 74.8444 41.7778 75.0044C37.9022 75.2533 34.0267 75.3777 30.1156 75.3422C26.2044 75.3777 22.3111 75.2533 18.4356 75.0044C18.3111 74.8444 18.1867 74.6489 18.1156 74.4533C17.9556 67.4844 17.9556 60.5155 18.1156 53.5644C18.2578 53.1555 18.5244 52.8533 18.88 52.6755C26.3644 52.64 33.8489 52.6755 41.3333 52.7822C41.5289 52.8711 41.7244 52.9777 41.8844 53.12C42.3644 54.0622 42.3111 54.9866 41.7778 55.8933C41.4222 56.0889 41.0489 56.2311 40.6578 56.3377C34.3644 56.4444 28.0711 56.48 21.7778 56.4444V71.5555H38.4356C38.4889 70.0089 38.4356 68.4444 38.3289 66.8978C37.3333 67.6622 36.4089 68.5155 35.5556 69.44C34.7911 70.0622 33.9733 70.1333 33.1022 69.6711C31.5911 68.1422 30.08 66.6311 28.5511 65.12C27.9289 62.8622 28.7822 61.9378 31.1111 62.3289C32.1067 63.3778 33.1556 64.3733 34.2222 65.3333C37.2089 62.7555 40.1778 60.1244 43.1111 57.44C45.5467 57.1022 46.3289 58.0977 45.44 60.4444Z" fill="#44C5FF"/>
<path fill-rule="evenodd" clip-rule="evenodd" d="M75.8933 84.4444C75.6267 84.1066 75.2889 83.84 74.88 83.6622C71.4133 83.5555 67.9289 83.52 64.4445 83.5555C63.84 83.9111 63.4311 84.4266 63.2178 85.12C63.0045 88.6044 63.0756 92.0889 63.4489 95.5555C63.7156 95.9111 64.0533 96.16 64.4445 96.3377C68.0889 96.5511 71.7156 96.48 75.3244 96.1066C75.5911 95.9111 75.7867 95.6622 75.8933 95.3422C76.0356 91.6977 76.0356 88.0711 75.8933 84.4444ZM72.2133 92.6755H66.88V87.3422H72.2133V92.6755Z" fill="#44C5FF"/>
<path fill-rule="evenodd" clip-rule="evenodd" d="M92.5511 84.2311C92.3556 83.9644 92.0889 83.7689 91.7689 83.6622C88.2133 83.5555 84.6578 83.52 81.1022 83.5555C80.5689 83.84 80.2489 84.2844 80.1067 84.8889C79.9644 88.3022 79.9644 91.6978 80.1067 95.1111C80.3022 95.7511 80.7111 96.1422 81.3333 96.3377C84.9778 96.5511 88.6044 96.48 92.2133 96.1066C92.48 95.9111 92.6756 95.6622 92.7822 95.3422C92.9956 91.6089 92.9245 87.9111 92.5511 84.2311ZM89.1022 92.6755H83.7689V87.3422H89.1022V92.6755Z" fill="#44C5FF"/>
<path fill-rule="evenodd" clip-rule="evenodd" d="M109.671 84.2311C109.458 83.9644 109.209 83.7689 108.889 83.6622C105.333 83.5555 101.778 83.52 98.2222 83.5555C97.7778 83.8933 97.44 84.3378 97.2267 84.8889C97.0667 88.3022 97.0667 91.6978 97.2267 95.1111C97.4044 95.7511 97.8133 96.1422 98.4356 96.3377C102.098 96.5511 105.724 96.48 109.333 96.1066C109.6 95.9111 109.778 95.6622 109.884 95.3422C110.098 91.6089 110.027 87.9111 109.671 84.2311ZM106.222 92.6755H100.889V87.3422H106.222V92.6755Z" fill="#44C5FF"/>
<path fill-rule="evenodd" clip-rule="evenodd" d="M45.44 95.1111C44.3378 96 43.3067 96.96 42.3289 98.0089C42.2578 101.707 42.1867 105.404 42.1156 109.12C42.0267 109.316 41.92 109.511 41.7778 109.671C37.9022 109.92 34.0267 110.044 30.1156 110.009C26.2044 110.044 22.3111 109.92 18.4356 109.671C18.3111 109.511 18.1867 109.316 18.1156 109.12C17.9556 102.151 17.9556 95.1822 18.1156 88.2311C18.2578 87.8222 18.5244 87.52 18.88 87.3422C26.3644 87.3066 33.8489 87.3422 41.3333 87.4489C41.5289 87.5377 41.7244 87.6444 41.8844 87.7866C42.3644 88.7289 42.3111 89.6533 41.7778 90.56C41.3511 90.7733 40.9067 90.9155 40.4444 91.0044C34.2222 91.1111 28 91.1466 21.7778 91.1111V106.222H38.4356C38.4889 104.676 38.4356 103.111 38.3289 101.564C37.3333 102.329 36.4089 103.182 35.5556 104.107C34.7911 104.729 33.9733 104.8 33.1022 104.338C31.5911 102.809 30.08 101.298 28.5511 99.7866C27.9289 97.5289 28.7822 96.6044 31.1111 96.9955C32.1067 98.0444 33.1556 99.04 34.2222 100C37.2089 97.4222 40.1778 94.7911 43.1111 92.1066C45.5467 91.7689 46.3289 92.7644 45.44 95.1111Z" fill="#44C5FF"/>
<path fill-rule="evenodd" clip-rule="evenodd" d="M75.8933 100C75.6267 99.6622 75.2889 99.3955 74.88 99.2178C71.4133 99.1111 67.9289 99.0755 64.4445 99.1111C63.84 99.4666 63.4311 99.9822 63.2178 100.676C63.0045 104.16 63.0756 107.644 63.4489 111.111C63.7156 111.467 64.0533 111.716 64.4445 111.893C68.0889 112.107 71.7156 112.036 75.3244 111.662C75.52 111.484 75.6978 111.307 75.8933 111.111C76.0356 107.413 76.0356 103.698 75.8933 100ZM72.2133 108.231H66.88V102.898H72.2133V108.231Z" fill="#44C5FF"/>
<path fill-rule="evenodd" clip-rule="evenodd" d="M92.5511 99.7866C92.3556 99.52 92.0889 99.3244 91.7689 99.2178C88.2133 99.1111 84.6578 99.0755 81.1022 99.1111C80.5689 99.3955 80.2489 99.84 80.1067 100.444C79.9644 103.858 79.9644 107.253 80.1067 110.667C80.3022 111.307 80.7111 111.698 81.3333 111.893C84.9778 112.107 88.6044 112.036 92.2133 111.662C92.48 111.467 92.6756 111.218 92.7822 110.898C92.9956 107.164 92.9245 103.467 92.5511 99.7866ZM89.1022 108.231H83.7689V102.898H89.1022V108.231Z" fill="#44C5FF"/>
<path fill-rule="evenodd" clip-rule="evenodd" d="M109.671 99.7866C109.458 99.52 109.209 99.3244 108.889 99.2178C105.404 99.1111 101.92 99.0755 98.4356 99.1111C97.8489 99.3778 97.44 99.8222 97.2267 100.444C97.0667 103.858 97.0667 107.253 97.2267 110.667C97.4044 111.307 97.8133 111.698 98.4356 111.893C102.098 112.107 105.724 112.036 109.333 111.662C109.6 111.467 109.778 111.218 109.884 110.898C110.098 107.164 110.027 103.467 109.671 99.7866ZM106.222 108.231H100.889V102.898H106.222V108.231Z" fill="#44C5FF"/>
</svg>
