
<svg width="128" height="128" viewBox="0 0 128 128" fill="none" xmlns="http://www.w3.org/2000/svg">
<path fill-rule="evenodd" clip-rule="evenodd" d="M120.889 37.3333C120.693 36.8889 120.427 36.4444 120.107 36C116.142 32.0355 112.178 28.0889 108.213 24.1244C106.862 23.2 105.369 22.8978 103.769 23.2355C101.938 21.4755 100.053 19.8222 98.0978 18.2222C97.3156 12.2489 94.0089 8.55108 88.2133 7.11108H83.7689C82.1333 7.44886 80.6044 8.12442 79.2178 9.11997C75.8044 8.17775 72.3556 7.5022 68.8889 7.11108H58.88C52.1956 7.80442 45.7778 9.5822 39.6622 12.4444C39.0044 11.6622 38.24 11.0222 37.3333 10.56C36.3911 10.3822 35.5022 10.5244 34.6667 11.0044C25.6533 20 16.6578 29.0133 7.66223 38.0089C7.48445 38.4177 7.30667 38.7733 7.11111 39.1111V40.6755C8.12445 41.9911 9.22667 43.2533 10.4356 44.4444C8.72889 49.1555 7.60889 53.9733 7.11111 58.8978V69.12C7.37778 71.2178 7.73334 73.3333 8.21334 75.4489C7.73334 76.4266 7.36 77.44 7.11111 78.4533V82.8978C7.50223 84.2666 8.05334 85.6 8.76445 86.8978C12.1956 92.0355 15.7156 97.1022 19.3244 102.116C20.2311 102.56 21.1911 102.791 22.2222 102.791C32.1956 113.333 44.4089 119.36 58.88 120.889H64C64.8178 120.48 65.3689 119.804 65.6533 118.898C65.7778 101.422 65.8133 83.9289 65.7778 66.4533C82.6845 70.9155 99.6089 75.36 116.551 79.7866C117.849 79.7866 118.738 79.2 119.218 78.0089C119.982 75.0578 120.551 72.0889 120.889 69.12V58.8978C120.338 53.9022 119.236 49.0133 117.547 44.2311C118.756 42.88 119.858 41.4755 120.889 40V37.3333ZM36.2133 14.4533C44.7822 22.6844 53.2622 31.0578 61.6533 39.5555C61.8133 39.7155 61.8133 39.8578 61.6533 40C61.0311 40.64 60.3911 41.2622 59.7689 41.9022C59.6267 42.0444 59.4667 42.0444 59.3244 41.9022C51.9822 34.4889 44.5867 27.1466 37.1022 19.8933C36.48 19.7333 35.8933 19.8044 35.3244 20.1244C32.96 22.4889 30.6133 24.8355 28.2489 27.2L26.08 29.3689L20.9067 34.56L19.4667 36C17.44 38.0266 15.3956 40.0355 13.3333 42.0089C12.5156 41.3333 11.7689 40.6044 11.1111 39.7866C19.4844 31.3422 27.84 22.8978 36.2133 14.4533ZM52 19.3422H55.3245C55.36 22.2222 55.3244 25.12 55.2178 28C54.1689 26.9689 53.1378 25.9378 52.1067 24.8889C52 23.04 51.9467 21.1911 52 19.3422ZM29.7778 41.6711C28.8711 41.92 28.2311 42.4711 27.8756 43.3422C27.7689 49.6355 27.7333 55.9289 27.7689 62.2222H18.88C18.8444 55.3422 18.88 48.4444 18.9867 41.5644C19.8044 40.7644 20.6044 39.9466 21.4044 39.1644L23.4311 37.12L28.5689 31.9111C28.5689 31.9111 28.6044 31.9111 28.64 31.9111C31.2 29.3155 33.7956 26.7555 36.4267 24.2489C42.3467 30.0622 48.2311 35.9111 54.08 41.7955C54.2045 48.6222 54.24 55.4311 54.2044 62.24H45.0844C45.1911 55.8577 45.0844 49.4933 44.7467 43.1289C44.4089 42.4178 43.84 41.9378 43.0933 41.6889C38.6489 41.5466 34.2044 41.5466 29.76 41.6889L29.7778 41.6711ZM41.5467 45.12V62.2222H31.3244V45.12H41.5467ZM13.5467 46.3466C14.0267 45.9377 14.56 45.6177 15.1111 45.3333C15.3244 50.9333 15.3956 56.5689 15.3244 62.2222H10.6667C10.8089 56.7822 11.7689 51.4844 13.5467 46.3466ZM22.88 98.3466C22.3644 98.5778 21.8489 98.72 21.3333 98.7911C18.0978 94.08 14.88 89.3689 11.6622 84.6755C9.6 80.1422 10.5956 76.48 14.6667 73.6711C15.5556 73.3155 16.4444 72.9778 17.3333 72.6755C19.2178 72.5511 20.9956 72.96 22.6667 73.9022C24.1422 75.0933 25.4756 76.4266 26.6667 77.9022C27.3244 78.0444 28 78.0444 28.6578 77.9022C33.1378 75.6089 36.8711 76.4622 39.8756 80.4444C41.8844 84.6933 41.0311 88.2844 37.3333 91.2355C32.48 93.5466 27.6622 95.9111 22.88 98.3466ZM25.5467 101.013C30.24 98.7733 34.9156 96.48 39.5556 94.1155C44.2489 90.3822 45.6178 85.6711 43.6622 80C41.0133 74.7378 36.7644 72.48 30.88 73.2266C29.9022 73.44 28.9778 73.76 28.1067 74.2222C23.8044 68.96 18.5778 67.8222 12.4444 70.7911C11.9644 71.04 11.5556 71.3778 11.2178 71.7866C10.7911 69.8133 10.6133 67.8044 10.6667 65.7778C27.3956 65.7422 44.1422 65.7778 60.8889 65.9022C55.68 74.8089 50.4711 83.7333 45.3156 92.6755L44.2133 94.6133L40.3911 101.28L39.4667 102.898L39.3067 103.182C38.1511 105.28 36.9244 107.324 35.6622 109.333C31.9467 107.022 28.5689 104.231 25.5467 101.013ZM38.88 111.004C40.1422 108.978 41.3511 106.898 42.4533 104.782L47.2 96.6755L47.8222 95.6089C52.5689 87.3778 57.3333 79.1289 62.08 70.8978C62.2044 86.3822 62.24 101.867 62.2045 117.333C53.8845 117.138 46.0978 115.022 38.8622 111.004H38.88ZM57.7778 62.2222C57.6889 56.6755 57.7778 51.1111 57.9911 45.5644C59.5911 46.3466 60.9244 46.0622 61.9911 44.6755C62.2222 50.4889 62.2933 56.3378 62.2222 62.2222H57.7778ZM62.0978 34.8977C61.0667 33.8666 60.0356 32.8177 58.9867 31.7866C58.9156 27.2 58.8444 22.5955 58.7733 18.0089C58.5067 16.8533 57.8133 16.16 56.6578 15.8933C54.4178 15.6978 52.1956 15.7689 49.9911 16.1244C49.28 16.4622 48.8 17.0133 48.5511 17.7778C48.48 18.8978 48.3911 20 48.32 21.12C46.3644 19.1466 44.3911 17.1911 42.4356 15.2355C47.84 12.8 53.4756 11.2889 59.3244 10.6666H62.2222C62.2578 18.7555 62.2222 26.8266 62.0978 34.8977ZM65.7778 10.6666C69.1733 10.6666 72.4978 11.1111 75.7689 12C73.9733 13.76 72.32 15.6089 70.7733 17.5644C70.2578 18.5066 69.8133 19.4666 69.44 20.4444C69.12 22.8444 68.7467 25.2089 68.32 27.5555C67.7867 28.8711 66.9689 29.9911 65.8844 30.8977C65.7778 24.16 65.7244 17.4222 65.7778 10.6666ZM65.8844 35.7866C68.1244 34.0444 69.9911 31.9822 71.4311 29.5644C71.84 28.64 72.1245 27.6622 72.32 26.6666C72.1956 24.0889 72.7111 21.6355 73.8845 19.3422C75.9822 17.0133 78.1689 14.7555 80.4445 12.5689C81.6 11.68 82.8622 11.0578 84.2133 10.6666C88.9244 10.24 92.2311 12.16 94.0978 16.4444C94.9333 19.4666 94.4178 22.2044 92.5511 24.6755C90.3467 26.9333 88.0889 29.12 85.7778 31.2355C84.9244 31.7155 84.0356 32.0889 83.1111 32.3378C79.5378 32.1955 76.2844 33.0844 73.3333 35.0044C70.6844 37.6533 68.1956 40.4266 65.8844 43.3422C65.7244 40.8177 65.7244 38.3111 65.8844 35.7866ZM69.9911 63.7866C68.5867 63.3778 67.1822 63.0044 65.7778 62.6666C65.7244 58.08 65.7778 53.4933 65.8844 48.8889C68.48 45.8666 71.0578 42.8266 73.6533 39.7866C75.0756 37.9911 76.8889 36.8533 79.1111 36.3378C82.7022 36.48 85.9556 35.52 88.8889 33.4578C91.52 30.9511 94.0089 28.32 96.32 25.5644C96.9245 24.5866 97.3333 23.5555 97.5467 22.4533C98.8622 23.3955 100.053 24.5155 101.102 25.7778C97.0311 29.9022 92.9956 34.0444 88.9956 38.2222C88.3733 39.1822 87.9289 40.2311 87.6622 41.3333C87.5378 43.4844 87.3956 45.6355 87.2178 47.7866C86.8978 48.48 86.5245 49.1555 86.0978 49.7778C85.5289 50.2933 84.9422 50.8089 84.3733 51.3244L76.2133 58.3466L73.4578 60.7111C72.2844 61.7066 71.1289 62.7378 69.9911 63.7866ZM117.209 68.8889C117.031 71.2711 116.622 73.6177 116 75.8933C105.884 73.4222 95.8044 70.7555 85.7778 67.8933C88.7289 64.4266 91.7689 61.0133 94.88 57.6711C95.52 57.3155 96.1956 57.0133 96.8889 56.7822C98.7378 56.7111 100.587 56.64 102.436 56.5689C104.196 56.2311 105.76 55.5022 107.111 54.3466C109.6 51.8933 112.036 49.4044 114.436 46.8978C115.982 50.88 116.907 55.0222 117.209 59.3422C117.369 62.5244 117.369 65.7066 117.209 68.8889ZM117.209 39.1111C112.711 43.7689 108.089 48.2489 103.324 52.5689C102.88 52.7111 102.436 52.8533 101.991 53.0133C97.0489 52.2133 93.0133 53.7244 89.8845 57.5644C87.2533 60.64 84.6222 63.7155 81.9911 66.7911C79.4311 66.3289 76.9067 65.6533 74.4356 64.7822C75.2178 64.0711 76.0178 63.36 76.8 62.6489L86.4356 54.3111C87.2889 53.5289 88.1422 52.7644 88.9956 52C90.88 49.4755 91.52 46.6666 90.88 43.5555C91.04 42.2933 91.4489 41.1022 92.1067 40L105.44 26.6666C106.436 27.3066 107.182 28.1244 107.662 29.12C103.947 32.8177 100.249 36.5333 96.5511 40.2311C96.2667 42.4711 97.1911 43.2533 99.3244 42.56C102.987 38.8622 106.702 35.1822 110.436 31.5555C111.378 32.2311 112.071 33.0489 112.551 34.0089C108.836 37.7066 105.138 41.4222 101.44 45.12C101.138 47.3422 102.062 48.1244 104.213 47.4489C107.876 43.7511 111.591 40.0711 115.324 36.4444C115.982 36.9955 116.622 37.6 117.209 38.2222C117.369 38.5244 117.369 38.8266 117.209 39.1111Z" fill="#44C5FF"/>
<path fill-rule="evenodd" clip-rule="evenodd" d="M109.209 88.4444C104.302 81.0489 97.3867 77.5644 88.4445 78.0089C87.2711 78.24 86.0978 78.5066 84.8889 78.7911C75.1111 82.1511 69.92 88.9955 69.3333 99.3422C69.9378 109.938 75.2711 116.871 85.3333 120.124C94.5956 122.044 102.187 119.342 108.107 112C113.102 104.373 113.476 96.5333 109.209 88.4444ZM96.8889 116.124C87.4667 118.756 80.1778 115.982 74.9867 107.787C71.2533 99.3777 72.6933 92.0177 79.3244 85.6711C82.0978 83.5022 85.2089 82.1333 88.6578 81.5644C99.1644 81.3689 105.707 86.3289 108.32 96.4444C109.227 105.778 105.422 112.338 96.8889 116.124Z" fill="#44C5FF"/>
<path fill-rule="evenodd" clip-rule="evenodd" d="M96.5511 107.787C95.5022 109.209 94.1333 110.098 92.4445 110.453C92.7467 113.138 91.68 114.027 89.2089 113.12C88.9244 112.338 88.8 111.52 88.8889 110.667C87.1644 110.578 85.6 110.027 84.2133 109.013C83.3067 107.342 83.7511 106.276 85.5467 105.778C86.7022 106.507 87.9645 106.987 89.3333 107.236C92.4978 107.467 94.08 106.027 94.0978 102.898C93.9022 102.311 93.5644 101.831 93.1022 101.458C90.7911 100.587 88.5689 99.5555 86.4356 98.3466C83.9111 95.9289 83.5911 93.2266 85.44 90.2222C86.24 89.0844 87.3067 88.3555 88.6578 88C88.6222 86.7911 89.0667 85.8133 89.9911 85.12C91.9822 85.0311 92.8 86.0089 92.4445 88C93.8667 88.16 95.0933 88.7466 96.1067 89.7777C96.5867 91.9644 95.7333 92.8177 93.5467 92.3377C92.2133 91.3066 90.72 91.0755 89.1022 91.68C87.2533 93.2089 87.3245 94.6133 89.3333 95.8933C91.36 96.7466 93.3511 97.6355 95.3244 98.56C98.0978 101.298 98.5067 104.373 96.5511 107.787Z" fill="#44C5FF"/>
</svg>

